<?xml version="1.0" encoding="utf-8"?>
<!-- Generator: Adobe Illustrator 16.0.0, SVG Export Plug-In . SVG Version: 6.00 Build 0)  -->
<!DOCTYPE svg PUBLIC "-//W3C//DTD SVG 1.1//EN" "http://www.w3.org/Graphics/SVG/1.1/DTD/svg11.dtd">
<svg version="1.1" id="Layer_1" xmlns="http://www.w3.org/2000/svg" xmlns:xlink="http://www.w3.org/1999/xlink" x="0px" y="0px"
	 width="80px" height="83.414px" viewBox="73.753 248.89 80 83.414" enable-background="new 73.753 248.89 80 83.414"
	 xml:space="preserve">
<g>
	<path fill="#D34A47" d="M99.2,303.278l0.539-8.965l1.485-2.536c0,0-3.381,1.383-9.042,1.383c-5.661,0-8.992-1.357-8.992-1.357
		l1.666,2.767l0.589,8.709c0,0.934,3.079,1.691,6.877,1.691C96.12,304.969,99.2,304.211,99.2,303.278"/>
	<path fill="#D34A47" d="M97.502,261.412l1.129-4.464l6.253-6.581l-1.649-1.404l-6.619,7.01l-1.313,5.333
		c-0.95-0.032-1.941-0.049-2.961-0.049c-6.973,0-12.626,0.795-12.626,1.775s5.653,1.774,12.626,1.774s12.625-0.794,12.625-1.774
		C104.968,262.31,101.903,261.689,97.502,261.412"/>
	<path fill="#FFFFFF" d="M96.845,263.911c0,0-0.244,0.055-0.964,0.058c-0.72,0.003-1.23-0.005-1.435-0.19
		c-0.055-0.05-0.084-0.148-0.084-0.216c0.001-0.127,0.091-0.202,0.207-0.25l0.108,0.171c-0.047,0.017-0.073,0.036-0.073,0.057
		c-0.001,0.097,0.736,0.163,1.298,0.155c0.563-0.006,1.245-0.053,1.245-0.148c0-0.029-0.05-0.056-0.141-0.077l0.108-0.17
		c0.146,0.045,0.274,0.133,0.274,0.285C97.385,263.844,97.058,263.883,96.845,263.911"/>
	<path fill="#D34A47" d="M104.873,250.38c0.159-0.182-0.082-0.646-0.533-1.037c-0.452-0.391-0.945-0.562-1.104-0.38
		c-0.157,0.182,0.082,0.646,0.534,1.037C104.221,250.392,104.716,250.562,104.873,250.38"/>
	<path fill="#D34A47" d="M98.898,281.379c-0.148-1.425,3.12-3.491,2.282-3.558c-1.806,0.104-2.705,2.116-3.613,4.223
		c-0.333,0.773-1.471,4.066-2.218,3.661c-0.747-0.405,0.968-3.113,1.449-4.722c-0.554,0.407-2.588,1.986-3.113,0.507
		c-0.843,0.716-2.644,1.103-2.441-0.776c-0.448,0.794-1.454,1.902-2.662,1.442c-1.586-0.605,0.919-5.657,1.542-5.402
		s-0.125,1.406-0.322,1.853c-0.431,0.983-0.929,2.22-0.596,2.473c0.57,0.433,2.121-1.641,2.156-1.686
		c0.291-0.383,1.117-2.892,1.783-2.604c0.667,0.288-1.661,3.6-0.792,4.257c0.176,0.132,0.894-0.082,1.332-0.555
		c0.282-0.306,0.185-0.984,1.128-3.231c0.943-2.248,1.783-5.047,2.429-4.834c0.645,0.213,0.113,1.65-0.118,2.186
		c-1.088,2.514-2.97,6.667-2.083,6.353c0.887-0.315,1.349-0.333,2.219-1.351c0.868-1.017,0.828-2.692,1.408-2.656
		c0.579,0.036,0.481,0.572,0.342,0.982c0.57-0.653,2.701-2.026,3.215-0.666c0.61,1.611-3.05,3.938-2.137,3.82
		c0.889-0.116,2.332-1.029,2.947-1.86l1.694-15.23c0,0-1.706,1.411-12.55,1.411c-10.846,0-12.374-1.381-12.374-1.381l1.442,13.902
		c0.766-2.176,2.583-6.577,5.449-6.429c1.304,0.067,3.044,2.577,1.553,2.662c-0.631,0.036-0.694-1.253-1.441-1.442
		c-0.539-0.137-1.29,0.302-1.775,0.776c-0.968,0.947-3.048,4.682-2.773,6.545c0.35,2.374,3.276-0.826,3.771-1.775
		c0.348-0.669,0.585-2.651,1.347-2.444c0.763,0.208-0.066,2.254-0.619,4.063c-0.621,2.031-0.948,4.174-1.726,3.927
		c-0.779-0.246,0.489-2.868,0.443-3.327c-0.731,0.675-2.08,2.384-3.804,1.538l0.896,8.633c0,0,2.381,1.881,9.552,1.881
		c7.172,0,9.64-1.852,9.64-1.852l1.114-9.999C101.964,281.58,99.083,283.153,98.898,281.379"/>
</g>
<g>
	<path fill="#CB3837" d="M73.753,304.467v23.841h19.845v3.996h15.849v-3.996h35.694v-23.841H73.753L73.753,304.467z"/>
	<path fill="#FFFFFF" d="M85.605,308.463H77.75v3.996v11.852h7.856v-11.852h3.997v11.852h3.997v-11.852v-3.996H85.605
		L85.605,308.463z"/>
	<path fill="#FFFFFF" d="M97.595,308.463v15.021v0.827v3.997h7.993v-3.997h7.856v-15.848H97.595L97.595,308.463z M109.447,320.315
		h-3.859v-7.855h3.859V320.315L109.447,320.315z"/>
	<path fill="#FFFFFF" d="M125.296,308.463h-7.856v3.996v11.852h7.856v-11.852h3.997v11.852h3.996v-11.852h3.996v11.852h3.997
		v-11.852v-3.721v-0.275H125.296L125.296,308.463z"/>
</g>
<g>
	<path fill="#543729" d="M152.821,287.072c-2.51-2.411-15.057-3.916-19.016-4.354c0.191-0.453,0.354-0.921,0.489-1.404
		c0.54-0.236,1.123-0.456,1.725-0.64c0.073,0.217,0.42,1.046,0.617,1.439c7.961,0.22,8.369-5.915,8.693-7.596
		c0.316-1.645,0.3-3.232,3.031-6.136c-4.068-1.185-9.919,1.838-11.878,6.337c-0.737-0.275-1.475-0.479-2.205-0.605
		c-0.522-2.11-3.246-7.989-10.396-7.989c-9.05,0-18.914,7.467-18.914,20.105c0,10.624,7.254,19.936,11.352,19.936
		c1.79,0,3.33-1.341,3.691-2.542c0.303,0.823,1.232,3.385,1.537,4.036c0.451,0.964,2.54,1.799,3.453,0.799
		c1.175,0.651,3.329,1.045,4.503-0.695c2.263,0.478,4.262-0.87,4.306-2.479c1.109-0.06,1.655-1.617,1.412-2.859
		c-0.179-0.913-2.087-4.191-2.831-5.323c1.473,1.198,5.205,1.538,5.658,0.001c2.377,1.864,6.08,0.885,6.373-0.632
		c2.888,0.751,6.198-0.897,5.655-2.892C154.716,293.257,154.122,288.323,152.821,287.072L152.821,287.072z"/>
	<path fill="#00ACEE" d="M139.906,276.548c1-1.981,2.256-4.146,3.841-5.485c-1.746,0.704-3.469,2.805-4.487,5.053
		c-0.52-0.33-1.046-0.625-1.578-0.882c1.421-3.034,4.724-5.567,8.362-5.765c-2.438,2.211-1.572,6.805-3.576,9.237
		C141.895,278.13,140.577,277.019,139.906,276.548L139.906,276.548z M138.331,279.775c0.002-0.076,0.029-0.661,0.083-0.927
		c-0.14-0.033-1.009-0.203-1.462-0.192c-0.033,0.569,0.239,1.536,0.508,2.119c1.853-0.039,3.188-0.593,3.977-1.103
		c-0.67-0.313-1.813-0.59-2.683-0.757C138.657,279.115,138.418,279.627,138.331,279.775L138.331,279.775z"/>
	<path fill="#2BAF2B" d="M131.452,295.455l0.001,0.009c-0.235-0.505-0.484-1.118-0.782-1.92c1.159,1.687,4.792,0.816,4.602-0.695
		c1.777,1.338,5.438-0.223,4.605-2.099c1.781,0.83,3.814-0.84,3.357-1.566c3.036,0.584,5.946,1.168,6.86,1.401
		c-0.607,0.99-1.989,1.688-4.072,1.203c1.125,1.533-1.061,3.373-4.104,2.359c0.67,1.506-2.041,2.861-5.121,1.292
		C136.838,296.946,132.977,297.119,131.452,295.455L131.452,295.455z M137.475,287.843c3.523,0.271,9.351,0.797,12.959,1.301
		c-0.228-1.174-0.851-1.509-2.809-2.035C145.519,287.333,140.174,287.858,137.475,287.843L137.475,287.843z"/>
	<path fill="#FFCC2F" d="M135.272,292.849c1.777,1.338,5.438-0.223,4.605-2.099c1.781,0.83,3.814-0.84,3.357-1.566
		c-3.59-0.693-7.356-1.388-8.211-1.509c0.519,0.027,1.377,0.086,2.45,0.169c2.699,0.014,8.044-0.511,10.15-0.735
		c-3.411-0.864-10.375-2.126-15.184-2.438c-0.223,0.326-0.633,0.879-1.345,1.465c-2.104,4.451-5.917,7.412-10.135,7.412
		c-1.229,0-2.604-0.209-4.146-0.701c-0.96,1.03-5.06,1.81-8.385,0.178c2.638,6.177,8.755,10.301,15.527,10.301
		c5.703,0,8.232-5.824,7.677-7.365c-0.134-0.374-0.666-1.614-0.964-2.416C131.83,295.231,135.463,294.361,135.272,292.849
		L135.272,292.849z"/>
	<path fill="#CECECE" d="M131.816,281.129c0.503-0.274,2.243-1.329,3.902-1.725c-0.026-0.184-0.048-0.369-0.059-0.555
		c-1.089,0.26-3.139,1.14-4.314-0.072c2.479,0.748,3.718-0.667,5.54-0.667c1.086,0,2.636,0.303,3.857,0.783
		c-0.983-0.907-4.205-3.647-8.193-3.657C131.659,276.317,130.696,278.656,131.816,281.129L131.816,281.129z"/>
	<path fill="#EF5734" d="M116.815,292.847c1.542,0.492,2.917,0.701,4.146,0.701c4.218,0,8.03-2.961,10.135-7.412
		c-1.557,1.3-4.262,2.41-8.485,2.41c3.762-0.852,7.001-2.728,8.648-5.468c-1.159-1.843-2.414-5.921,0.767-9.145
		c-0.489-1.571-2.872-5.721-8.144-5.721c-9.2,0-16.826,7.699-16.826,18.017c0,2.442,0.494,4.733,1.374,6.795
		C111.756,294.656,115.855,293.877,116.815,292.847L116.815,292.847z"/>
	<path fill="#FFCC2F" d="M119.576,277.137c0,2.347,1.903,4.249,4.25,4.249c2.347,0,4.25-1.902,4.25-4.249
		c0-2.348-1.903-4.25-4.25-4.25C121.479,272.887,119.576,274.789,119.576,277.137L119.576,277.137z"/>
	<path fill="#543729" d="M121.281,277.137c0,1.405,1.139,2.543,2.544,2.543c1.406,0,2.544-1.139,2.544-2.543
		c0-1.406-1.138-2.545-2.544-2.545C122.42,274.592,121.281,275.731,121.281,277.137L121.281,277.137z"/>
	<ellipse fill="#FFFFFF" cx="123.826" cy="276.007" rx="1.482" ry="0.922"/>
</g>
</svg>
