<?xml version="1.0" encoding="utf-8"?><!DOCTYPE svg PUBLIC "-//W3C//DTD SVG 1.1//EN" "http://www.w3.org/Graphics/SVG/1.1/DTD/svg11.dtd"><svg width="125.703" height="1002" viewBox="0 0 125.703 1002" xmlns="http://www.w3.org/2000/svg" xmlns:xlink="http://www.w3.org/1999/xlink"><svg width="80" height="80.037" viewBox="0 0 80 80.037" id="svg--bootstrap"><g fill-rule="evenodd" clip-rule="evenodd"><path fill="#CCBEE2" d="M78.614 73.384c-.592 1.058-1.285 2.043-2.13 2.913-1.146 1.182-2.491 2.072-4.008 2.708-.877.42-1.823.583-2.766.765-.129.076-.283-.003-.413.064l-.122.006c-.143.108-.31.075-.47.079-.168-.005-.336.012-.503-.017-.178-.035-.357-.021-.536-.021H12.351c-.179 0-.358-.012-.536.019-.162.032-.326.015-.489.02-.15 0-.304.034-.449-.035-.063-.004-.125-.002-.188-.009-.137-.052-.287-.015-.425-.063a1.852 1.852 0 0 1-.662-.121 1.384 1.384 0 0 0-.682-.159c-.203-.069-.438-.032-.618-.182l-.758-.281c-2.373-1.111-4.347-2.686-5.705-4.96C.791 72.355.188 70.464.158 68.406c.074-.132.038-.276.038-.414.002-18.634.002-37.268 0-55.903 0-.138.033-.281-.035-.415l.001-.845a.08.08 0 0 0 .006-.074c-.029-.014-.038-.027-.027-.038.01-.01.02-.015.031-.015l.137-.872c-.065-.169.031-.305.087-.448a.332.332 0 0 0 .064-.244c.413-1.488 1.014-2.89 1.945-4.131C4.559 2.137 7.414.499 10.996.147c.1-.01.198-.038.297-.057.114-.089.247-.047.371-.047 18.893-.002 37.785-.002 56.677 0 .124 0 .257-.04.372.044.78.12 1.569.187 2.332.406 3.805 1.092 6.469 3.47 8.011 7.111.055.129.113.255.171.383a.345.345 0 0 0 .078.237c.344.344.336.78.321 1.218l.135.636c.063.219.157.434.089.67-.008.292.007.582.062.869.093.113.048.247.048.37.002 18.701.002 37.401 0 56.103 0 .123.043.257-.046.371-.109 1.157-.273 2.305-.678 3.401-.19.515-.414 1.016-.622 1.522z"/><path fill="#4D3175" d="M68.712.088l-.843-.003H12.175c-.294 0-.588.003-.882.005.128-.12.289-.086.438-.086h56.542c.15 0 .31-.033.439.084z"/><path fill="#583D7F" d="M68.714 79.996H11.291l-.016-.072a.197.197 0 0 1 .138-.043c8.824-.089 17.647-.023 26.47-.036 9.119-.013 18.237-.004 27.356 0 1.099 0 2.198-.04 3.296.036.047-.001.095.001.142.005.051.023.064.059.037.11z"/><path fill="#5C4282" d="M9.603 79.69c.241-.068.454.109.69.077l.028.037-.028.037c-.242.006-.483.007-.69-.151zM8.303 79.35c.208.054.442.019.618.182-.224 0-.453.016-.618-.182zM10.712 79.835l.119.003c.052.027.052.054 0 .081-.18-.017-.372.049-.537-.077.138-.065.278-.047.418-.007zM11.29 79.924l.001.072c-.137.021-.289.114-.384-.077a.409.409 0 0 1 .383.005z"/><path fill="#5D4383" d="M11.29 79.924a48.654 48.654 0 0 1-.382-.005h-.077v-.081l.456.011c.055.018.057.04.007.067l-.004.008z"/><path fill="#5C4282" d="M68.714 79.996l.002-.071a.407.407 0 0 1 .382-.006c-.097.182-.255.058-.384.077z"/><path fill="#5D4383" d="M69.098 79.919l-.382.006-.004-.008c-.051-.028-.049-.05.008-.066l.455-.011-.077.079zM69.297 79.834a.771.771 0 0 1 .413-.064c-.126.1-.272.066-.413.064z"/><path fill="#573E7D" d="M.083 10.905L.081 67.597c0 .218-.007.435-.011.652-.02.055-.041.056-.063.001v-5.758-30.477c0-6.864 0-13.728.002-20.591-.001-.174-.046-.36.074-.519zM.396 9.382l-.086.446c-.138-.17-.006-.331.019-.496.001-.005.027-.013.03-.01.014.019.024.04.037.06zM.173 10.7c.01.019.009.037-.004.053-.07-.074-.105-.157-.04-.311l.044.258z"/><path fill="#52377A" d="M79.913 68.462l-.005-23.105-.003-33.623c0-.038.004-.077.006-.115l.027-.339.062.001V57.658l-.001 10.552c0 .115.008.232-.012.345-.01.061-.047.017-.059-.017-.009-.025-.011-.052-.015-.076z"/><path fill="#D0C3E6" d="M.162 11.672c.105.135.074.293.074.444V67.96c0 .151.031.31-.077.443-.008-.166-.022-.331-.022-.497l.001-55.738c0-.165.015-.33.024-.496z"/><path fill="#583F7E" d="M.006 68.25l.063-.001v.478l-.063.003v-.48z"/><path fill="#573E7D" d="M79.625 9.443l-.321-1.218c.211-.091.25.102.31.21.182.329.164.67.011 1.008zM79.849 10.75l-.089-.67c.004-.012.006-.024.013-.035.006-.01.016-.018.023-.027.087.238.198.476.053.732z"/><path fill="#5C4283" d="M79.366 76.295c-.041.03-.07.067-.096.064-.026-.002-.05-.043-.074-.067.025-.024.049-.066.075-.067.025-.002.054.038.095.07z"/><path fill="#D0C2E6" d="M11.296.62c-.031-.018-.08-.058-.018-.068.125-.02.255-.011.383-.011 18.896 0 37.792 0 56.689.003.197 0 .412-.068.588.09-.153.093-.324.059-.487.059-18.878.002-37.756.002-56.634 0-.175-.001-.36.044-.521-.073z"/><path fill="#8D7CAA" d="M11.296.62L21.734.618l46.129.001c.358 0 .717.01 1.074.016a.63.63 0 0 1 .006.061c-.213.076-.433.021-.648.038H11.713c-.143-.02-.296.046-.432-.049a.565.565 0 0 1 .015-.065z"/><path fill="#8E7CAC" d="M68.72 79.851a1.324 1.324 0 0 1-.008.066l-18.538.002-38.881-.003-.007-.067.473-.02c.138-.047.279-.023.419-.023 18.55-.002 37.1-.002 55.649 0 .14 0 .282-.024.419.025l.474.02z"/><path fill="#4F3378" d="M.709 11.676c.093.137.063.294.063.444.002.925.002 1.851.002 2.776.139.084.156.223.165.367.012.191.01.383.01.575v15.333c0 .256-.005.511-.022.766.014.23.022.459.022.69 0 9.513.001 19.027-.006 28.541 0 .291.11.622-.169.865l-.001 6.294c-.022.038-.044.038-.065 0-.004-.153-.013-.307-.013-.46L.693 12.135c0-.153.011-.306.016-.459z"/><path fill="#52377A" d="M79.231 15.126l.001-3.454c.023-.053.047-.053.071 0 .008.166.022.331.022.497l-.002 55.66c0 .165-.012.331-.018.497-.111-.146-.073-.318-.073-.48-.003-1.811-.002-3.62-.002-5.43-.14-.084-.157-.223-.165-.367-.014-.229-.01-.46-.01-.689l-.001-28.574c0-.281.002-.563.022-.843-.011-.204-.022-.408-.022-.612 0-5.137-.001-10.274.005-15.411.001-.272-.078-.572.172-.794z"/><path fill="#D0C2E6" d="M68.247 79.831c-.166.004-.332.011-.498.011H12.297c-.179 0-.358-.009-.537-.013.14-.093.297-.063.448-.063H67.8c.15.001.308-.03.447.065z"/><path fill="#5C4282" d="M11.829 79.228v.069c-1.525-.024-2.996-.301-4.376-.976a31.873 31.873 0 0 1-.225-.203c.119-.151.292-.137.368-.032.185.255.513.25.718.449.051.05.11.063.176.049.531-.12 1.002.091 1.461.298.138.063.234-.04.361.018.218.1.495.012.692.224.046.05.222.045.289-.003.231-.169.375-.015.536.107zM4.536 76.311c.481.022.735.422 1.072.67.318.235.748.34.927.761.048.113.212.026.322.039.108.012.21.056.222.172.01.096-.087.108-.163.124a9.012 9.012 0 0 1-2.374-1.614c-.012-.051-.064-.1-.006-.152z"/><path fill="#5A4180" d="M4.536 76.311c.02.05.049.099.006.151a6.917 6.917 0 0 1-1.193-1.219c.417.223.648.655 1.033.914l.154.154zM.708 68.326h.065c.107.306.126.612.007.92a3.306 3.306 0 0 1-.072-.92zM.836 69.586c.007-.037.011-.074.024-.108.004-.012.031-.014.048-.021-.006.238.188.471.019.713a1.34 1.34 0 0 1-.091-.584z"/><path fill="#583F7E" d="M68.329.707l.615-.012c.132.017.272-.012.394.069L68.33.77c-.054-.02-.054-.041-.001-.063zM11.282.683l.395.025c.054.021.053.042-.001.062L10.669.765c.195-.096.408-.059.613-.082z"/><path fill="#5A4180" d="M1.223 71.347c.004-.013.004-.028.013-.035.016-.014.037-.021.055-.032.027.194.19.363.102.578a1.32 1.32 0 0 1-.17-.511zM76.245 75.65a.964.964 0 0 1 .493-.485c-.144.184-.25.404-.493.485zM79.237 69.25c-.154-.23-.05-.478.006-.72v.664a.054.054 0 0 1-.006.056z"/><path fill="#583F7E" d="M79.303 11.672h-.071l.007-.876c.093.287.084.581.064.876z"/><path fill="#5A4180" d="M78.008 73.242c-.021-.2.03-.364.23-.452a1.025 1.025 0 0 1-.23.452zM2.005 73.234c.205.058.248.205.221.393a1 1 0 0 1-.221-.393zM1.461 72.019c.184.073.236.199.152.38a.794.794 0 0 1-.152-.38z"/><path fill="#583F7E" d="M69.946.845c-.207-.021-.43.068-.617-.087.21-.004.42-.004.617.087z"/><path fill="#5A4180" d="M77.028 74.787c-.069-.212.117-.235.23-.313a.777.777 0 0 1-.23.313zM77.794 73.635c-.084-.151-.036-.229.133-.24a.402.402 0 0 1-.133.24zM2.817 74.552c.12.073.305.097.237.313a.82.82 0 0 1-.237-.313z"/><path fill="#583F7E" d="M10.677.759c-.165.145-.361.072-.545.083.171-.094.358-.086.545-.083z"/><path fill="#5A4180" d="M78.622 71.86c-.07-.108-.101-.202.079-.222a.306.306 0 0 1-.079.222zM78.474 72.247c-.084-.113-.097-.2.081-.213a.29.29 0 0 1-.081.213z"/><path fill="#583F7E" d="M79.167 10.213c-.13-.13-.076-.296-.088-.449.095.136.088.293.088.449z"/><path fill="#583F7E" d="M79.234 10.675c-.118-.142-.069-.31-.073-.47.083.148.08.308.073.47zM70.339.92c-.137-.001-.28.031-.396-.076.137.001.274-.005.396.076zM10.139.836c-.122.122-.275.08-.42.08.129-.086.276-.076.42-.08z"/><path fill="#5D4383" d="M10.712 79.835l-.418.007v-.074a.754.754 0 0 1 .418.067z"/><path fill="#513B74" d="M23.499 62.568l.012-.567a.49.49 0 0 1 .138-.067c2.58.131 5.161.045 7.741.056 3.784.017 7.569.003 11.354.007.487 0 .971-.005 1.444-.13.535-.143 1.09-.086 1.635-.138 2.236-.215 4.401-.675 6.463-1.605 1.333-.602 2.533-1.388 3.556-2.416 1.211-1.22 2-2.698 2.423-4.367.053-.209.071-.437.323-.52.093.113.068.236.039.364-.283 1.238-.662 2.446-1.348 3.524-.709 1.116-1.592 2.08-2.688 2.843-2.197 1.528-4.654 2.343-7.28 2.725-.26.038-.537.006-.781.14-7.677.332-15.355.068-23.031.151z"/><path fill="#5C4282" d="M75.81 75.59c-.021.017-.045.05-.076.059-.043.013-.075-.022-.062-.063a.133.133 0 0 1 .074-.073c.043-.014.067.018.064.077zM72.199 75.653c-.017-.021-.05-.045-.059-.076-.013-.043.022-.075.063-.062a.13.13 0 0 1 .072.073c.015.044-.018.068-.076.065zM72.228 74.795c.03.041.068.069.066.096-.003.026-.043.05-.066.074-.024-.024-.066-.048-.069-.074-.002-.026.037-.054.069-.096zM68.059 74.892c-.041.03-.069.069-.095.067-.025-.001-.066-.045-.066-.069.001-.024.042-.066.067-.067.027-.003.054.036.094.069zM67.993 75.652c-.058.002-.088-.024-.074-.066a.125.125 0 0 1 .073-.071c.042-.014.074.021.062.063-.01.03-.044.054-.061.074zM73.657 74.953c-.032-.013-.07-.021-.069-.028.002-.03.014-.061.022-.091.021.008.056.014.058.023.003.031-.006.062-.011.096z"/><path fill="#5A4180" d="M79.162 69.796c-.083-.104-.11-.217-.029-.409l.029.409z"/><path fill="#5C4282" d="M65.898 74.823c-.013.032-.021.069-.028.069-.03-.002-.061-.015-.091-.023.008-.02.014-.056.023-.057.031-.004.062.006.096.011zM66.625 74.903c-.027.016-.052.033-.079.041-.006.002-.036-.044-.03-.052.016-.024.043-.04.066-.059l.043.07zM73.566 75.593l.045-.068c.022.021.05.036.065.061.005.009-.027.054-.032.052-.027-.01-.051-.029-.078-.045zM72.96 74.823c-.013.032-.021.069-.028.069-.03-.002-.061-.015-.091-.023.008-.02.014-.056.023-.057.031-.004.062.006.096.011zM66.625 75.57l-.045.068c-.022-.02-.05-.036-.064-.061-.006-.008.026-.053.031-.052.028.011.051.03.078.045zM74.418 74.883c-.034.005-.066.014-.096.009-.01-.001-.015-.037-.022-.058.031-.008.061-.02.092-.021.006 0 .015.038.026.07zM67.357 74.824c-.014.032-.023.069-.03.068-.03-.002-.061-.015-.091-.024.009-.02.016-.055.025-.057.031-.002.062.008.096.013zM67.291 75.667c-.025-.044-.057-.075-.051-.096.005-.021.046-.036.074-.044.009-.002.041.036.038.048-.009.028-.032.05-.061.092zM75.13 75.595c-.046.021-.08.048-.099.04-.021-.009-.032-.051-.036-.079-.001-.01.041-.038.052-.033.027.012.046.038.083.072zM65.165 75.5c.016.048.041.085.031.102-.012.021-.054.028-.083.03-.008 0-.032-.044-.026-.056.013-.024.04-.042.078-.076zM72.979 75.56c-.033.037-.054.078-.073.077-.023-.001-.051-.033-.067-.058-.004-.007.022-.05.036-.05.027-.001.056.015.104.031z"/><g fill="#583F7E"><path d="M79.2 68.837l-.01.128a.38.38 0 0 0 .053.229c.086-.285.078-.576.063-.868-.068-.133-.034-.275-.035-.413-.003-1.809.001-3.618-.003-5.427a.22.22 0 0 0-.037-.087v-30.46-16.791a.4.4 0 0 0 .038-.093c.002-1.125 0-2.252.001-3.378-.018-.293.036-.589-.031-.881l-.005-.122c-.1-.145.012-.322-.072-.469-.112-.131.017-.309-.083-.442-.022-.071-.055-.142-.064-.215-.083-.578-.223-1.137-.524-1.646-.238-.896-.75-1.651-1.253-2.41-.864-1.302-2.017-2.324-3.318-3.14A10.797 10.797 0 0 0 70.339.92c-.121-.084-.278.021-.396-.076l.003.001c-.195-.104-.426.041-.617-.087l.009.006c-.345-.04-.683-.139-1.034-.108H11.699c-.343.036-.686.078-1.029.109l.008-.006c-.168.12-.373-.009-.544.081-.124.102-.286.003-.416.076-.889.114-1.712.459-2.512.823A10.8 10.8 0 0 0 3.08 5.024c-.605.785-1.164 1.603-1.473 2.562-.606 1.296-.87 2.667-.898 4.09.061 1.052.008 2.105.028 3.158l.047.058-.009.004V62.023c-.021.021-.036.057-.039.111v6.111c.027.333.078.665.044 1-.011.118-.015.234.056.34.028.006.039-.047.044-.032a.078.078 0 0 0 .009.019c.001-.011.003.002 0 0l-.001.016c-.008.195.081.385.039.582a4 4 0 0 0 .296 1.177.969.969 0 0 1 .17.511l.068.161a.523.523 0 0 1 .152.38c.088.299.209.582.392.836.138.095.178.245.221.393.172.324.336.654.591.925.098.09.207.172.237.313.046.167.223.232.295.379.271.258.526.531.796.79.071.069.134.156.229.185.005.075.08.107.136.151.233.061.378.251.565.378.591.403 1.116.905 1.783 1.195.046.02.058.081.058.134.16.124.337.207.536.245.092.024-.116-.285.121-.106.149.112.306.207.477.294.385.196.809.153 1.202.284.894.298 1.825.407 2.76.474l55.743.001c.165 0 .332-.027.495.025 2.5-.036 4.726-.85 6.7-2.369.238-.185.51-.34.667-.615.181-.246.535-.327.628-.658.162-.163.32-.332.493-.485.058-.156.251-.208.29-.378.028-.141.143-.217.23-.313.179-.279.417-.521.536-.839a.34.34 0 0 1 .133-.24l.081-.152c.048-.166.114-.322.23-.452a1.43 1.43 0 0 0 .235-.543c.003-.08-.022-.171.081-.213l.066-.174c.001-.083.002-.166.079-.222a6.214 6.214 0 0 0 .461-1.843v-.001.001a.186.186 0 0 1 0-.001c.076-.175.089-.357.075-.545a.516.516 0 0 1-.047-.285l.012-.131zM24.187 19.311H44.81c.541-.093 1.079.189 1.619.003.03-.01.027-.001-.016.007-.044.008-.055.044-.054.083.328.279.702.287 1.096.182.025-.029.052-.058.073-.089.023-.033-.01-.063-.003-.096.071.03.045.063.005.101-.018.017-.02.044-.015.07.309.287.717.225 1.084.308.437-.077.837.027 1.213.247.15.233.393.256.636.276.094-.014.193-.06.268.042a.462.462 0 0 0 .307.179c.19-.001.366.037.498.191a.705.705 0 0 0 .167.1c.057.024.111.053.164.082a.578.578 0 0 0 .178.078.399.399 0 0 1 .336.196c.049.05.106.088.173.114.178.045.348.104.433.288a.591.591 0 0 0 .257.186 3.094 3.094 0 0 1 1.389 1.228.875.875 0 0 0 .185.243c.061.051.115.107.162.169a.553.553 0 0 0 .1.105c.104.06.157.153.177.268.037.157.11.294.234.401.271.234.448.515.442.887.034.199.088.387.271.507.215.253.216.556.207.862.038.258.104.509.18.758.047.117.091.235.094.363a.543.543 0 0 0 .018.113c.107.438.199.88.153 1.337a.383.383 0 0 0-.002.117c.049.189.007.374-.023.558-.017.205-.011.411-.033.615.061.276.067.551-.021.823a.423.423 0 0 0-.003.118c.037.17-.045.324-.064.486a.468.468 0 0 0 .006.112c.005.114-.003.228.015.341a.192.192 0 0 0 .016.042 5.003 5.003 0 0 0-.223.809c-.185.898-.575 1.707-1.074 2.464a9.544 9.544 0 0 1-3.508 3.22c-.196.105-.429.194-.437.479.083.191.269.217.438.27 2.62.821 4.514 2.467 5.663 4.969.588 1.281.906 2.631 1.038 4.022.071.744.125 1.491.049 2.252-.067.672-.185 1.338-.233 2.011.029.136.067.263.039.412-.403 2.128-1.41 3.929-2.994 5.39-1.253 1.156-2.735 1.947-4.335 2.531a20.134 20.134 0 0 1-4.266 1.033c-.131.018-.284.01-.338.146a.828.828 0 0 1-.089-.061 3.094 3.094 0 0 0-.536-.002c-.929.073-1.857.138-2.791.138-6.251-.002-12.502-.001-18.753 0-.253 0-.507-.01-.761.019.048-.127.02-.274.026-.413.039-.292.03-.587.03-.881V20.375c0-.218.003-.435-.005-.652-.005-.14-.003-.283-.096-.403a.18.18 0 0 0-.037-.036c.212.025.43.027.648.027zM79.119 69.7z"/><path d="M79.161 10.205l.001.001.005.007zM10.131.841l.003-.001.005-.004zM67.687 79.23c-18.619-.003-37.239-.003-55.858-.003-.009 0-.019.008-.027.023-.009.016 0 .031.027.046.153.006.307.015.46.015h55.502c.153 0 .306-.012.459-.019-.177-.11-.375-.062-.563-.062z"/></g><path fill="#583F7E" d="M66.777 14.363c-.016.152-.053.277-.214.28-.141.002-.198-.109-.203-.229-.007-.137.047-.258.206-.264.145-.004.176.119.211.213zM73.841 14.384c-.021.135-.061.25-.198.259-.162.01-.22-.113-.223-.249-.002-.12.054-.233.19-.244.168-.012.2.122.231.234zM65.771 14.253c.008-.089.054-.106.107-.106.054 0 .104.021.11.081.007.079-.043.119-.116.099-.041-.012-.075-.054-.101-.074zM74.418 14.24c-.023.071-.077.099-.146.088-.06-.01-.085-.055-.066-.112.018-.055.064-.076.12-.071.054.005.092.032.092.095z"/><path fill="#523879" d="M11.676.771l.001-.062c.153-.005.307-.014.459-.014h55.771c.14 0 .28.008.421.013a.663.663 0 0 1 .002.063H11.676z"/><path fill="#583F7E" d="M8.798 6.803c-.017.076-.074.096-.141.089-.054-.006-.096-.044-.09-.1.008-.079.072-.098.139-.09.052.006.087.043.092.101zM37.74 6.787c-.005.063-.039.099-.093.105-.067.008-.131-.011-.139-.09-.006-.056.037-.093.091-.1.068-.008.123.014.141.085zM50.991 6.957c-.018.056-.018.135-.102.124-.067-.009-.093-.074-.096-.137-.003-.056.037-.087.09-.093.077-.009.113.029.108.106zM45.547 6.851c.07.015.109.054.088.127-.018.059-.049.126-.122.101-.032-.011-.057-.075-.067-.118-.017-.075.024-.113.101-.11zM43.841 6.849c.082.014.104.068.08.132-.015.04-.052.096-.083.099-.072.006-.1-.061-.105-.122-.007-.076.042-.106.108-.109zM38.469 7.086c-.073-.02-.084-.081-.089-.141-.005-.056.027-.092.083-.095.072-.003.119.033.112.107-.005.063-.033.118-.106.129zM36.77 6.851c.076.003.112.046.091.118-.013.042-.041.103-.073.111-.076.02-.102-.051-.115-.11-.019-.075.025-.111.097-.119zM31.511 6.979c-.024.056-.055.129-.123.097-.039-.019-.061-.099-.067-.153-.006-.06.049-.079.102-.071.071.01.105.052.088.127zM29.801 6.966c-.018.056-.026.133-.108.114-.063-.014-.088-.08-.087-.143.001-.059.046-.083.098-.085.077-.003.109.038.097.114zM16.697 6.964c-.02.057-.037.128-.114.116-.07-.011-.08-.083-.083-.143-.003-.058.037-.087.091-.087.074 0 .112.038.106.114zM14.987 6.95c-.014.058-.016.134-.096.13-.07-.002-.096-.067-.102-.13-.005-.055.03-.09.083-.099.074-.011.115.022.115.099zM9.639 6.944c-.012.063-.032.129-.1.137-.082.009-.089-.068-.099-.125-.009-.054.01-.099.072-.105.068-.006.116.02.127.093zM7.837 7.085c-.075-.009-.099-.064-.108-.126-.009-.054.019-.096.073-.105.068-.013.123.009.122.088-.002.06-.016.121-.087.143zM52.699 6.979c-.024.056-.055.129-.123.097-.039-.019-.062-.099-.066-.153-.006-.06.049-.079.102-.071.07.01.104.052.087.127zM2.476 6.87c.062-.005.099.022.097.078-.004.062-.031.121-.1.131-.02.002-.061-.038-.067-.065-.015-.063.005-.119.07-.144zM35.478 6.547c.112.019.153.063.15.13-.001.021-.047.057-.07.056-.066-.004-.114-.045-.111-.117.002-.032.028-.062.031-.069zM46.785 6.732c-.082.005-.125-.021-.104-.079a.169.169 0 0 1 .097-.092c.053-.017.099.023.082.079-.011.04-.056.07-.075.092z"/><path fill="#FEFEFE" d="M47.514 19.508l1.163.223c.398.04.782.125 1.14.313.221.117.455.19.701.23.08.003.163-.001.209.084a.642.642 0 0 0 .33.143c.213-.005.365.124.527.234l.16.082c.063-.005.116.008.14.076l.163.088a.786.786 0 0 1 .388.212l.152.088c.162.082.335.147.446.303a.448.448 0 0 0 .243.162c.579.324 1.048.771 1.449 1.294l.173.212c.066.041.123.088.138.17l.061.081c.1.086.204.169.232.309.059.146.134.281.247.393.2.278.414.55.479.9.051.191.107.378.221.544.133.264.288.522.24.838l.219.768c.096.119-.004.273.07.397l-.005-.01c.137.505.106 1.028.162 1.542l-.003-.007a.708.708 0 0 1 .004.537l-.002.669c-.094.308.04.635-.078.94l.003-.006c-.095.171.038.376-.083.543l.004-.007c-.06.123-.018.253-.031.38-.608 3.234-2.598 5.351-5.48 6.726.029.148.199.15.215.278 1.075.332 2.114.74 3.056 1.377 1.739 1.178 2.877 2.808 3.553 4.765.841 2.433.938 4.922.468 7.442-.239.873-.479 1.746-.887 2.562-1.117 2.234-2.911 3.746-5.13 4.801-2.389 1.136-4.933 1.622-7.554 1.773-.214.013-.434-.024-.641.063-.112.094-.246.049-.369.049-6.686.002-13.372.002-20.057 0-.125 0-.256.033-.375-.037a.072.072 0 0 0-.063-.03l.002-42.182.002-.538c.101-.083.221-.046.333-.046 7.002-.001 14.005-.003 21.007 0 .411.067.83.02 1.242.075.084.012.179-.029.247.053l1.18.147-.011-.003z"/><path fill="#503973" d="M51.51 39.236c-.24.026-.436-.1-.662-.161.082-.211.269-.22.408-.286 2.043-.974 3.683-2.375 4.719-4.422.342-.675.556-1.396.757-2.122.028-.051.056-.051.083 0l.001.154c-.301 1.455-.837 2.802-1.759 3.988-.819 1.055-1.822 1.881-2.981 2.527l-.566.322z"/><path fill="#462573" d="M44.915 19.276l-5.79-.003h-15.15c-.153 0-.307.005-.46.008l-.087-.013c.173-.122.372-.071.559-.071 6.976-.002 13.952-.001 20.928-.001.021.018.027.036.021.053-.008.018-.015.027-.021.027z"/><path fill="#583F7E" d="M23.42 24.799c-.089-.109-.076-.24-.076-.367v-4.793c0-.127-.014-.258.077-.367l-.001 5.527zM23.42 28.944a3.587 3.587 0 0 1 0-1.61v1.61zM23.42 27.102a.48.48 0 0 1 0-.536v.536zM23.42 26.411a.374.374 0 0 1 0-.459v.459z"/><path fill="#43276A" d="M23.574 62.031c.154-.004.307-.01.46-.01l19.268-.001 1.073-.001c-.14.131-.314.087-.477.087-6.627.002-13.255.002-19.882.001-.15 0-.309.034-.442-.076z"/><path fill="#583F7E" d="M44.915 19.276v-.08c.653-.048 1.293.138 1.947.137l-.519.03c-.476-.015-.955-.013-1.428-.087zM54.726 23.04c-.46-.458-.939-.893-1.449-1.294.325-.025.481.254.675.421.291.252.657.46.774.873zM49.817 20.044l-1.14-.313c.431-.078.805.12 1.193.244.006.001.012.028.007.032-.018.015-.04.026-.06.037z"/><path fill="#5A4180" d="M56.962 29.184l-.162-1.542c.207.499.17 1.022.162 1.542z"/><path fill="#583F7E" d="M56.055 25.105c-.159-.3-.318-.6-.479-.9.282.235.477.517.479.9zM56.516 26.487l-.24-.838c.235.235.335.509.24.838zM53.034 21.584a1.304 1.304 0 0 1-.446-.303c.206.016.399.053.446.303z"/><path fill="#5A4180" d="M56.883 31.323c.008-.315-.002-.631.078-.94-.022.313.09.638-.078.94z"/><path fill="#583F7E" d="M47.523 19.51l-.271-.131c.2-.069.366.015.549.073-.093.086-.196.035-.286.056l.008.002zM52.435 21.193a.88.88 0 0 1-.388-.212c.19-.04.346-.019.388.212zM51.584 20.735a1.57 1.57 0 0 1-.527-.234c.238-.062.403.039.527.234z"/><path fill="#5A4180" d="M56.963 29.713l-.004-.537c.126.179.121.358.004.537z"/><path fill="#583F7E" d="M55.33 23.813l-.232-.309c.117.071.304.092.232.309z"/><path fill="#5A4180" d="M56.803 31.859c0-.185.01-.369.083-.543-.01.184.062.38-.083.543z"/><path fill="#583F7E" d="M50.727 20.358l-.209-.084c.111-.075.198-.09.209.084zM55.037 23.422l-.138-.17c.127-.008.193.032.138.17zM51.884 20.893a9.625 9.625 0 0 1-.14-.076c.034-.04.075-.07.127-.043.057.03.053.074.013.119z"/><path fill="#5A4180" d="M56.805 27.652a.754.754 0 0 1-.07-.397c.106.118.077.259.07.397zM56.815 32.246h-.083a.73.73 0 0 1 .075-.393l.008.393zM51.143 47.198c.153.377.164.778.205 1.175a11.088 11.088 0 0 0-.002 1.525c-.178 3.313-2.451 5.629-5.804 5.924a19.9 19.9 0 0 1-1.76.072c-4.114-.002-8.229 0-12.342-.006-.137 0-.303.082-.417-.076.069-.146.034-.303.034-.453.004-4.056-.002-8.11.005-12.165.054-.16.188-.194.333-.208.127-.012.255-.012.383-.012 4.387 0 8.774-.018 13.161.01 1.456.009 2.831.388 4.05 1.23.909.629 1.576 1.443 1.939 2.498.059.167.095.347.215.486z"/><path fill="#59407F" d="M49.306 29.531c.357 2.232.249 4.357-1.543 6.025-1.131 1.052-2.527 1.575-4.054 1.59-4.145.042-8.289.024-12.433.027-.088 0-.214.058-.254-.092.069-.133.035-.276.035-.414.004-3.559-.003-7.118.005-10.676.07-.17.221-.194.378-.205.153-.011.307-.009.46-.009 3.858 0 7.716-.005 11.574.002 1.04.002 2.063.142 3.037.528.844.334 1.613.777 2.112 1.574.272.435.452.912.588 1.405.025.087.017.183.095.245z"/><path fill="#503A73" d="M51.143 47.198c-.007.038-.001.09-.024.11-.077.067-.072-.029-.084-.058-.156-.405-.307-.81-.536-1.185-.972-1.595-2.449-2.404-4.227-2.764-.731-.147-1.469-.16-2.21-.159-4.321.007-8.643.004-12.963.005-.097-.17.01-.364-.066-.536.107-.108.242-.053.362-.053 4.281-.004 8.563-.013 12.846.002 1.657.005 3.262.273 4.663 1.246 1.195.831 1.962 1.953 2.239 3.392z"/><path fill="#4F3972" d="M49.306 29.531c-.005.012-.006.027-.015.035-.017.014-.037.022-.057.033-.051-.158-.103-.315-.152-.474-.418-1.316-1.331-2.146-2.59-2.636-.978-.38-1.997-.534-3.038-.536-4.118-.006-8.237-.001-12.355 0-.101-.142.021-.321-.079-.462.052-.167.192-.094.29-.094 4.164.001 8.329-.009 12.493.021 1.385.01 2.715.315 3.863 1.153 1.001.731 1.467 1.767 1.64 2.96z"/><path fill="#4F3179" d="M31.033 42.612c.107.168.049.356.066.536 0 4.048 0 8.096-.003 12.145 0 .175.045.359-.072.52-.006-.102-.019-.202-.019-.304-.002-4.199-.003-8.397-.002-12.596 0-.1.019-.2.03-.301z"/><path fill="#4D3077" d="M31.02 25.491c.116.139.064.306.079.462 0 3.536 0 7.073-.003 10.609 0 .175.045.36-.073.52-.006-.369-.017-.739-.018-1.108-.002-3.38-.002-6.76-.002-10.141-.001-.114.011-.228.017-.342z"/><path fill="#482874" d="M51.346 49.898a4.032 4.032 0 0 1 .002-1.525 10.49 10.49 0 0 1-.002 1.525z"/></g></svg><svg width="57.11" height="80" viewBox="0 0 57.11 80" id="svg--css" y="81"><path fill="#0D5AA2" d="M51.756 73.752L28.555 80 5.354 73.752 0 15.751h57.11z"/><path fill="#449CD1" d="M28.555 20.449v54.568l.052.014 18.776-5.055 4.333-49.527z"/><g fill="#1A171B"><path d="M15.388 7.229V3.777h5.036V0h-8.815v10.677h8.815V7.229zM29.485 3.777h3.521V0h-8.814v3.777c1.179 1.18 1.794 1.743 3.5 3.449-.997 0-3.5.004-3.5.004v3.446h8.814V7.229l-3.521-3.452zM41.979 3.777H45.5V0h-8.815v3.777c1.18 1.18 1.795 1.743 3.501 3.449-.997 0-3.501.004-3.501.004v3.446H45.5V7.229l-3.521-3.452z"/></g><path fill="#FFF" d="M28.534 34.951l-16.605 6.916.55 6.848 16.055-6.865 17.078-7.301.708-7.005z"/><linearGradient id="ba" gradientUnits="userSpaceOnUse" x1="20.231" y1="48.715" x2="20.231" y2="34.951"><stop offset=".387" stop-color="#d8d9da" stop-opacity="0"/><stop offset="1" stop-color="#d8d9da"/></linearGradient><path fill="url(#ba)" d="M11.929 41.867l.55 6.848 16.055-6.865v-6.899z"/><linearGradient id="bb" gradientUnits="userSpaceOnUse" x1="37.427" y1="41.85" x2="37.427" y2="27.544"><stop offset=".387" stop-color="#d8d9da" stop-opacity="0"/><stop offset="1" stop-color="#d8d9da"/></linearGradient><path fill="url(#bb)" d="M46.32 27.544l-17.786 7.407v6.899l17.078-7.301z"/><linearGradient id="bc" gradientUnits="userSpaceOnUse" x1="11.954" y1="54.853" x2="45.009" y2="54.853"><stop offset="0" stop-color="#eeedeb"/><stop offset="1" stop-color="#fff"/></linearGradient><path fill="url(#bc)" d="M11.954 41.867l.551 6.848 24.634.078-.551 9.129-8.107 2.283-7.792-1.968-.471-5.667h-7.241l.945 10.94 14.639 4.329 14.559-4.25 1.889-21.722z"/><g opacity=".05" fill="#1A171B"><path d="M28.534 41.867H11.929l.55 6.848 16.055.051zM28.534 60.183l-.079.022-7.791-1.968-.473-5.667h-7.24l.945 10.94 14.638 4.329z"/></g><linearGradient id="bd" gradientUnits="userSpaceOnUse" x1="10.434" y1="31.047" x2="46.32" y2="31.047"><stop offset="0" stop-color="#eeedeb"/><stop offset="1" stop-color="#fff"/></linearGradient><path fill="url(#bd)" d="M10.434 27.544H46.32l-.708 7.005H11.299z"/><path opacity=".05" fill="#1A171B" d="M28.534 27.544h-18.1l.865 7.005h17.235z"/></svg><svg width="125.703" height="80" viewBox="0 0 125.703 80" id="svg--git" y="161"><path fill="#F42534" d="M78.493 36.437L43.563 1.509a5.152 5.152 0 0 0-7.286 0l-7.253 7.253 9.2 9.201a6.116 6.116 0 0 1 7.748 7.8l8.868 8.867a6.117 6.117 0 0 1 6.334 1.455 6.128 6.128 0 0 1 0 8.669 6.13 6.13 0 0 1-10.005-6.667l-8.271-8.271v21.763a6.188 6.188 0 0 1 1.621 1.159 6.131 6.131 0 1 1-6.661-1.338V29.438a6.13 6.13 0 0 1-3.328-8.04l-9.07-9.072L1.509 36.275a5.154 5.154 0 0 0 0 7.288L36.44 78.491a5.152 5.152 0 0 0 7.286 0l34.767-34.766a5.154 5.154 0 0 0 0-7.288z"/><g fill-rule="evenodd" clip-rule="evenodd"><path fill="#201F1F" d="M71.261 45.556c-1.201-.206-2.405-.391-3.602-.621-3.124-.602-6.132-1.533-8.871-3.208-2.305-1.409-4.167-3.252-5.501-5.606-.182-.32-.367-.424-.732-.408-6.68.293-13.29 1.058-19.76 2.823-.142.038-.39.235-.471-.06-.08-.291.225-.24.367-.28 4.025-1.102 8.125-1.818 12.271-2.272 2.426-.265 4.857-.477 7.297-.521.569-.01.479-.186.359-.617-.266-.93-.801-1.161-1.749-1.18-6.041-.117-12.045.19-17.999 1.289-.224.042-.628.3-.699-.039-.076-.36.381-.254.606-.296 5.928-1.11 11.912-1.446 17.933-1.288.395.01.79.001 1.236.001-.337-1.149-.691-2.278-.869-3.445-.594-3.897-.898-7.79.302-11.642.69-2.22 1.82-4.198 3.354-5.936.297-.335.365-.588.226-1.029-1.165-3.673-.78-7.276.542-10.832.138-.372.418-.361.704-.374 1.506-.067 2.936.3 4.333.803 2.405.866 4.608 2.119 6.72 3.544.313.211.584.274.976.176 6.624-1.665 13.274-1.757 19.937-.25.436.098.736.019 1.092-.211 2.469-1.605 5.032-3.02 7.915-3.752.912-.232 1.84-.36 2.786-.313.358.018.552.154.68.506 1.191 3.291 1.588 6.632.688 10.062-.074.283-.058.48.166.713 3.365 3.524 4.902 7.75 4.854 12.601-.031 3.155-.196 6.289-.995 9.383.542 0 1.061.013 1.577-.002 6.104-.169 12.171.171 18.185 1.283.062.011.137.001.182.033.133.094.455-.035.397.258-.059.296-.312.116-.467.086-5.637-1.054-11.331-1.405-17.057-1.344-.834.009-1.668.079-2.501.067-.374-.005-.492.151-.594.464-.401 1.243-.41 1.233.906 1.288 6.452.265 12.826 1.072 19.072 2.763.1.027.204.043.3.082.085.034.226.041.184.191-.037.134-.111.202-.277.147-.276-.089-.562-.15-.844-.224-4.161-1.088-8.391-1.773-12.667-2.203-2.242-.224-4.49-.349-6.74-.455-.259-.012-.508-.076-.668.275-1.811 3.983-5.059 6.289-9.057 7.707-2.686.953-5.466 1.454-8.29 1.757-.139.016-.296-.021-.409.104-.226.248-.531.213-.816.213-4.39.006-8.779.011-13.17-.004-.453-.003-.917.002-1.342-.207zM67.908 50.828c.385-1.23.792-2.45 1.562-3.509.06-.083.13-.157.196-.235 1.131-.621 2.392-.661 3.626-.809 1.573-.189 3.161-.053 4.735-.155 1.752-.113 3.489-.024 5.223.162 1.993.214 3.803.884 5.221 2.391.557.593.906 1.326 1.364 1.987.286.987.289 2.005.297 3.017.021 2.662.006 5.325.008 7.987.001.227.024.455.035.682.207.196.179.455.181.701.007.561-.021 1.123.008 1.682.08 1.469.727 2.616 2 3.383.301.182.639.305.904.546.482.44.542.874.193 1.418-.682.53-1.477.345-2.222.298-.888-.057-1.768-.229-2.586-.617-2.114-.869-3.097-2.497-3.146-4.733-.021-1.083-.006-2.167-.004-3.251-.031-1.892-.004-3.784-.016-5.676-.006-.962-.143-1.907-.471-2.816-.096-.267-.183-.546-.506-.835-.044 3.149.008 6.192-.027 9.233.01 2.166 0 4.331.006 6.495.004 1.416.357 2.681 1.579 3.558.611.97.43 1.542-.625 1.979a1.834 1.834 0 0 1-.511.061c-1.48-.169-2.775-.782-3.957-1.668-1.123-1.029-1.646-2.278-1.637-3.825.027-5.348.047-10.698.031-16.047-.001-.312.021-.625-.031-.932-.303-.552-.445-.567-.834-.085-.063.291-.032.583-.033.874-.017 5.391.021 10.782.02 16.173 0 1.52-.538 2.8-1.631 3.85-1.341 1.02-2.794 1.73-4.537 1.649a.859.859 0 0 1-.206-.043c-.902-.568-.968-1.077-.262-2.032 1.229-.754 1.524-1.915 1.506-3.265-.03-2.241-.02-4.483-.005-6.725-.028-3.094.01-6.189-.021-9.343-.345.154-.413.424-.502.663-.341.906-.471 1.852-.478 2.814-.016 1.976.015 3.951-.014 5.926-.007 1.126.022 2.253-.012 3.378-.065 2.193-1.093 3.756-3.124 4.634-1.408.57-2.875.73-4.379.606-.406-.107-.75-.3-.799-.762-.053-.495.222-.829.627-1.063.342-.198.712-.344 1.054-.545 1.175-.693 1.781-1.709 1.774-3.082-.002-.583-.005-1.167.002-1.75.003-.247-.023-.506.181-.702.055-2.172.076-4.344-.011-6.515-.092-1.621-.151-3.24.11-4.852a.604.604 0 0 1 .144-.275z"/><path fill="#9BD9EF" d="M93.425 69.937c.236-.59.075-1.061-.562-1.356-1.98-.917-2.782-2.509-2.723-4.618.015-.539.023-1.079.034-1.619 3.952.663 7.835 1.564 11.39 3.504 1.191.65 2.303 1.414 3.134 2.53 1.256 1.69 1.147 3.537-.305 5.104-1.396 1.505-3.167 2.43-5.018 3.197-2.873 1.191-5.89 1.893-8.948 2.419-.08.014-.166-.003-.249-.006-.174-.185-.166-.418-.167-.645-.004-1.392-.027-2.783.007-4.173.041-1.689 1.223-3.308 2.814-3.906.246-.091.43-.241.593-.431zM67.667 62.469c.063.973.09 1.951-.013 2.918-.149 1.423-.985 2.375-2.245 2.984-.223.108-.458.193-.675.312-.345.189-.588.46-.59.882-.004.421.333.531.633.673 1.893.62 3.047 2.21 3.057 4.224a311.67 311.67 0 0 1-.003 3.745c-.001.264.047.547-.169.768-4.158-.726-8.221-1.732-11.819-4.078-.79-.514-1.492-1.135-2.033-1.915-1.188-1.712-1.04-3.468.379-5.002 1.32-1.427 2.991-2.318 4.735-3.07 2.8-1.207 5.744-1.931 8.743-2.441z"/><path fill="#201F1F" d="M67.405 55.956c-5.015 1.158-9.976.248-12.817-4.857a52.925 52.925 0 0 0-1.128-1.941c-.853-1.401-1.982-2.506-3.477-3.221-.526-.251-1.038-.539-1.434-.982-.446-.502-.356-.909.275-1.152 1.006-.388 2.012-.232 2.995.095 1.899.633 3.306 1.89 4.366 3.554.584.916 1.18 1.818 1.999 2.545 2.477 2.201 5.295 2.364 8.301 1.383.394-.129.776-.294 1.165-.442.214.261.075.501-.044.742-.176.264-.737.084-.698.564.027.347.551.275.629.624.112.88.036 1.761.044 2.641a.654.654 0 0 1-.176.447z"/><path fill="#7CB9E5" d="M93.425 69.937c-.116.35-.407.503-.715.644-1.639.75-2.434 2.088-2.511 3.832-.068 1.557-.019 3.12-.021 4.68-1.402.247-2.811.456-4.234.534-.515.061-.437-.349-.446-.618-.039-.955-.009-1.912-.018-2.867-.006-.851.043-1.705-.071-2.553.957-.44 1.082-.788.621-1.719.559-1.137 1.579-1.731 2.655-2.258a10.37 10.37 0 0 0 3.51.64c.447 0 .859-.054 1.23-.315zM67.662 78.975c-.001-1.516.016-3.032-.008-4.547-.027-1.86-.933-3.166-2.6-3.956-.118-.056-.216-.118-.277-.233 1.499.063 2.969-.086 4.383-.625 1.156.441 2.121 1.114 2.717 2.234-.516.908-.46 1.255.287 1.763.197.219.197.492.198.761a474.88 474.88 0 0 1-.001 4.466c-.001.268.009.544-.208.754-1.509-.11-3.014-.269-4.491-.617z"/><path fill="#9BD9EF" d="M76.653 72.08c1.242-1.181 1.688-2.639 1.675-4.333-.037-5.352-.021-10.704-.017-16.056 0-.24-.088-.501.095-.721.29.289.209.661.21 1.005.007 2.811-.001 5.621.012 8.432.002.276-.153.76.258.77.479.012.327-.497.329-.792.016-2.769.004-5.538.014-8.307.001-.343-.086-.718.219-.999.164.225.086.483.086.725-.007 5.345.006 10.691-.047 16.037-.016 1.683.435 3.105 1.709 4.231.079.299-.096.517-.239.743-.751 1.169-1.063 2.466-1.099 3.837-.021.85 0 1.7-.006 2.55-.002.265.031.544-.172.768-1.094-.048-2.193.146-3.28-.092.335-.308.749-.179 1.131-.189.377-.01.62-.127.579-.538-.146-1.423.002-2.869-.314-4.279a6.716 6.716 0 0 0-.881-2.119c-.132-.203-.328-.39-.262-.673z"/><path fill="#7CB9E5" d="M79.68 79.971c.055-1.718-.172-3.444.23-5.154.238-1.016.755-1.877 1.285-2.743 1.126.807 2.359 1.353 3.737 1.55.116.15.088.319.036.477-.514 1.529-.502 3.109-.479 4.692.004.328.049.671-.176.96-1.54.176-3.084.272-4.633.218zM76.653 72.08c1.047 1.344 1.531 2.869 1.526 4.571-.001.891.063 1.783.118 2.673.023.397-.1.573-.524.547-.455-.027-.916.002-1.374.007-.953-.006-1.906-.018-2.852-.16-.243-.255-.182-.579-.193-.883-.033-1.032.069-2.068-.069-3.098-.111-.808-.216-1.619-.992-2.115 1.645.029 3.062-.59 4.36-1.542z"/><path d="M89.835 50.659c-.14.426-.202.041-.244-.034-.577-1.02-1.216-1.977-2.196-2.675-1.256-.894-2.678-1.267-4.168-1.521-1.114-.19-2.254-.215-3.348-.177-1.929.066-3.861-.031-5.791.157-1.094.106-2.183.209-3.266.399-.395.069-.725.388-1.156.275a6.133 6.133 0 0 1 1.595-1.528c.386-.23.77.014 1.154.013 4.724-.012 9.448-.013 14.173-.017 1.723 1.297 2.845 2.973 3.247 5.108z"/><path fill="#9BD9EF" d="M84.314 79.752c.029-1.61-.164-3.231.241-4.821.112-.439.25-.872.377-1.308l.477-.035c.367.07.271.363.271.593.006 1.614 0 3.227.008 4.84.001.227-.109.523.257.604-.531.208-1.09.062-1.631.127zM72.293 73.623c.717.042.864.549 1.012 1.136.355 1.415.191 2.849.233 4.274.007.229.006.458.01.686l-1.395-.127.011-5.981.129.012z"/><path fill="#9CD9EF" d="M49.355 45.941c.223.818.442 1.636.667 2.454.114.416.048.79-.304 1.056-.255.192-.547.166-.822.006-.385-.223-.467-.603-.379-.974.205-.86.468-1.706.707-2.557.045.004.088.01.131.015z"/><path fill="#030303" d="M67.405 55.956l-.004-3.265c-.242-.358-.137-.673.118-.97l.132-.785c.038-.147.157-.103.257-.109-.169 1.546-.118 3.1-.136 4.651-.002.159-.074.317-.116.476l-.251.002z"/><path fill="#F3C9B0" d="M99.564 30.173c.11 2.38-.164 4.706-1.155 6.893-1.495 3.295-4.315 4.826-7.659 5.61-2.632.618-5.313.756-8.003.818-4.419.102-8.835.136-13.219-.56-2.189-.348-4.312-.92-6.274-1.99-3.168-1.727-4.862-4.445-5.354-7.968-.124-.888-.196-1.781-.124-2.679.278-2.81 1.754-4.929 3.875-6.659 1.438-1.174 3.171-1.553 4.964-1.642 2.334-.116 4.659.111 6.983.318 2.967.264 5.931.372 8.913.09 2.713-.257 5.432-.54 8.168-.423 2.221.096 4.235.738 5.837 2.338 1.625 1.622 2.827 3.49 3.048 5.854z"/><path fill="#C39A85" d="M99.564 30.173c-.329-1.356-.78-2.663-1.586-3.82-1.397-2.007-3.111-3.565-5.632-3.994-1.819-.31-3.644-.248-5.471-.115-1.095.08-2.187.229-3.284.277-1.887.084-3.771.347-5.663.249-2.05-.107-4.096-.268-6.142-.438-2.357-.195-4.729-.392-7.083.092-2.136.44-3.687 1.73-4.963 3.421a10.597 10.597 0 0 0-1.965 4.453c-.03-2.06.854-3.768 2.042-5.367 1.899-2.562 4.5-3.614 7.623-3.658 2.672-.038 5.324.217 7.986.35 2.287.114 4.581.112 6.874-.039 2.825-.187 5.649-.452 8.486-.296 4.095.225 7.903 3.589 8.668 7.649.079.411.16.816.11 1.236z"/><path fill="#9BD9EF" d="M71.877 71.847c-.549-.394-.846-1.033-1.429-1.41-.427-.276-.938-.429-1.288-.824 2.198-.995 3.089-2.751 3.005-5.1-.032-.891.008-1.784.015-2.675.432-.219.87-.362 1.344-.123.004 2.472.014 4.943.007 7.415-.004 1.23-.555 2.145-1.654 2.717zM88.686 69.612c-.199.454-.698.477-1.047.713-.629.426-1.068 1.034-1.608 1.544-1.313-.691-1.671-1.93-1.705-3.249-.06-2.304-.008-4.61-.002-6.916.472-.259.92-.258 1.336.118.01 1.101.009 2.203.032 3.303.042 2.13 1.069 3.611 2.994 4.487z"/><path fill="#FEFEFE" d="M73.523 61.716l-1.344.123c.016-2.498-.152-4.998.107-7.492a4.857 4.857 0 0 1 .532-1.783c.148-.283.307-.579.704-.758l.001 9.91zM85.659 61.824c-.437-.134-.889-.105-1.336-.118v-9.729c.357.095.468.396.609.65.498.895.698 1.885.72 2.883.046 2.103.01 4.209.007 6.314z"/><path fill="#FCFCFC" d="M79.447 51.08l-.026 9.796c-.001.316.047.579-.444.626-.504.049-.575-.099-.574-.548.016-3.328.006-6.656.004-9.984.413-.458.728-.425 1.04.11z"/><path fill="#99D5EB" d="M57.741 50.407c-.03.245-.152.43-.47.421-.393-.011-.844-.489-.822-.883.016-.266.152-.425.431-.432.379-.011.856.465.861.894z"/><path fill="#98D4E9" d="M59.036 51.42c.393.042.756.248.816.726.036.286-.212.423-.502.431-.441.011-.962-.409-.921-.765.036-.311.26-.399.607-.392z"/><path fill="#99D6EB" d="M61.807 53.341c-.341-.029-.732-.107-.784-.573-.043-.388.284-.471.589-.478.424-.009.842.106.875.595.023.347-.313.446-.68.456zM64.613 53.377c-.333-.036-.713-.073-.725-.508-.012-.432.356-.524.702-.537.378-.013.77.102.769.539-.001.411-.394.476-.746.506z"/><path fill="#98D4EA" d="M54.832 47.875c.022-.247.103-.44.399-.445.347-.005.774.458.756.843-.013.248-.115.436-.405.443-.357.009-.76-.439-.75-.841z"/><path fill="#97D3E8" d="M54.382 46.445c.003.19-.151.311-.394.291-.379-.031-.609-.266-.67-.63-.035-.211.106-.352.323-.382.292-.041.722.341.741.721zM67.52 51.721c-.04.324-.08.647-.118.97-.377.026-.788-.019-.759-.483.032-.492.435-.588.877-.487z"/><path fill="#95CFE4" d="M52.757 45.141c-.053.232-.214.317-.416.286-.279-.044-.536-.175-.55-.492-.011-.242.209-.283.405-.267.296.023.502.166.561.473z"/><path fill="#FEFEFE" d="M95.087 31.479c-.088 1.751-.499 3.517-1.907 4.916-1.657 1.645-3.929 1.449-5.347-.414-1.969-2.585-1.977-7.183.171-9.658 1.636-1.886 4.009-1.882 5.673.318 1.049 1.384 1.373 2.997 1.41 4.838zM71.674 31.179c.04 1.723-.313 3.285-1.336 4.631-1.744 2.298-4.167 2.322-5.932.044-2.034-2.623-1.862-7.668.617-9.897 1.698-1.526 3.714-1.226 5.085.406 1.171 1.393 1.626 3.059 1.566 4.816z"/><path fill="#AC5C51" d="M78.726 41.346c-1.146.004-1.923-.567-2.44-1.551-.129-.247-.18-.491.118-.64.292-.146.396.099.515.298.975 1.641 2.645 1.638 3.627-.008.12-.202.229-.438.519-.288.297.154.233.402.106.644-.519.986-1.308 1.54-2.445 1.545zM78.721 37.92c-.559-.008-1.057-.518-1.058-1.084-.003-.615.5-1.135 1.086-1.126.59.01 1.073.536 1.06 1.153-.014.562-.532 1.065-1.088 1.057z"/><path fill="#AB5C51" d="M93.185 31.604c-.032.897-.283 1.959-.993 2.863-1.102 1.402-2.767 1.381-3.854-.034-1.255-1.629-1.278-4.52-.052-6.162 1.142-1.528 2.898-1.511 4.009.039.576.806.898 1.914.89 3.294zM64.871 31.31c.002-1.246.295-2.398 1.157-3.338 1.033-1.127 2.464-1.112 3.492.012 1.498 1.637 1.53 4.928.063 6.594-1.111 1.264-2.631 1.237-3.695-.065-.673-.825-1.019-1.911-1.017-3.203z"/><path fill="#FDFCFC" d="M89.409 30.182c-.46-.034-.741-.26-.752-.731-.009-.475.276-.747.722-.75.415-.004.699.25.718.694.018.465-.234.721-.688.787z"/><path fill="#FDFBFB" d="M67.37 29.456c-.007.437-.415.83-.852.822a.86.86 0 0 1-.821-.851c.007-.461.375-.81.849-.802a.82.82 0 0 1 .824.831z"/></g></svg><svg width="80" height="83.414" viewBox="73.753 248.89 80 83.414" id="svg--gulp" y="241"><path fill="#D34A47" d="M99.2 303.278l.539-8.965 1.485-2.536s-3.381 1.383-9.042 1.383-8.992-1.357-8.992-1.357l1.666 2.767.589 8.709c0 .934 3.079 1.691 6.877 1.691 3.798-.001 6.878-.759 6.878-1.692M97.502 261.412l1.129-4.464 6.253-6.581-1.649-1.404-6.619 7.01-1.313 5.333a88.153 88.153 0 0 0-2.961-.049c-6.973 0-12.626.795-12.626 1.775s5.653 1.774 12.626 1.774 12.625-.794 12.625-1.774c.001-.722-3.064-1.343-7.465-1.62"/><path fill="#FFF" d="M96.845 263.911s-.244.055-.964.058c-.72.003-1.23-.005-1.435-.19a.32.32 0 0 1-.084-.216c.001-.127.091-.202.207-.25l.108.171c-.047.017-.073.036-.073.057-.001.097.736.163 1.298.155.563-.006 1.245-.053 1.245-.148 0-.029-.05-.056-.141-.077l.108-.17c.146.045.274.133.274.285-.003.258-.33.297-.543.325"/><path fill="#D34A47" d="M104.873 250.38c.159-.182-.082-.646-.533-1.037-.452-.391-.945-.562-1.104-.38-.157.182.082.646.534 1.037.451.392.946.562 1.103.38M98.898 281.379c-.148-1.425 3.12-3.491 2.282-3.558-1.806.104-2.705 2.116-3.613 4.223-.333.773-1.471 4.066-2.218 3.661-.747-.405.968-3.113 1.449-4.722-.554.407-2.588 1.986-3.113.507-.843.716-2.644 1.103-2.441-.776-.448.794-1.454 1.902-2.662 1.442-1.586-.605.919-5.657 1.542-5.402s-.125 1.406-.322 1.853c-.431.983-.929 2.22-.596 2.473.57.433 2.121-1.641 2.156-1.686.291-.383 1.117-2.892 1.783-2.604.667.288-1.661 3.6-.792 4.257.176.132.894-.082 1.332-.555.282-.306.185-.984 1.128-3.231.943-2.248 1.783-5.047 2.429-4.834.645.213.113 1.65-.118 2.186-1.088 2.514-2.97 6.667-2.083 6.353.887-.315 1.349-.333 2.219-1.351.868-1.017.828-2.692 1.408-2.656.579.036.481.572.342.982.57-.653 2.701-2.026 3.215-.666.61 1.611-3.05 3.938-2.137 3.82.889-.116 2.332-1.029 2.947-1.86l1.694-15.23s-1.706 1.411-12.55 1.411c-10.846 0-12.374-1.381-12.374-1.381l1.442 13.902c.766-2.176 2.583-6.577 5.449-6.429 1.304.067 3.044 2.577 1.553 2.662-.631.036-.694-1.253-1.441-1.442-.539-.137-1.29.302-1.775.776-.968.947-3.048 4.682-2.773 6.545.35 2.374 3.276-.826 3.771-1.775.348-.669.585-2.651 1.347-2.444.763.208-.066 2.254-.619 4.063-.621 2.031-.948 4.174-1.726 3.927-.779-.246.489-2.868.443-3.327-.731.675-2.08 2.384-3.804 1.538l.896 8.633s2.381 1.881 9.552 1.881c7.172 0 9.64-1.852 9.64-1.852l1.114-9.999c-.91.886-3.791 2.459-3.976.685"/><g><path fill="#CB3837" d="M73.753 304.467v23.841h19.845v3.996h15.849v-3.996h35.694v-23.841H73.753z"/><path fill="#FFF" d="M85.605 308.463H77.75v15.848h7.856v-11.852h3.997v11.852H93.6v-15.848h-7.995zM97.595 308.463v19.845h7.993v-3.997h7.856v-15.848H97.595zm11.852 11.852h-3.859v-7.855h3.859v7.855zM125.296 308.463h-7.856v15.848h7.856v-11.852h3.997v11.852h3.996v-11.852h3.996v11.852h3.997v-15.848h-15.986z"/></g><g><path fill="#543729" d="M152.821 287.072c-2.51-2.411-15.057-3.916-19.016-4.354.191-.453.354-.921.489-1.404.54-.236 1.123-.456 1.725-.64.073.217.42 1.046.617 1.439 7.961.22 8.369-5.915 8.693-7.596.316-1.645.3-3.232 3.031-6.136-4.068-1.185-9.919 1.838-11.878 6.337a12.31 12.31 0 0 0-2.205-.605c-.522-2.11-3.246-7.989-10.396-7.989-9.05 0-18.914 7.467-18.914 20.105 0 10.624 7.254 19.936 11.352 19.936 1.79 0 3.33-1.341 3.691-2.542.303.823 1.232 3.385 1.537 4.036.451.964 2.54 1.799 3.453.799 1.175.651 3.329 1.045 4.503-.695 2.263.478 4.262-.87 4.306-2.479 1.109-.06 1.655-1.617 1.412-2.859-.179-.913-2.087-4.191-2.831-5.323 1.473 1.198 5.205 1.538 5.658.001 2.377 1.864 6.08.885 6.373-.632 2.888.751 6.198-.897 5.655-2.892 4.64-.322 4.046-5.256 2.745-6.507z"/><path fill="#00ACEE" d="M139.906 276.548c1-1.981 2.256-4.146 3.841-5.485-1.746.704-3.469 2.805-4.487 5.053-.52-.33-1.046-.625-1.578-.882 1.421-3.034 4.724-5.567 8.362-5.765-2.438 2.211-1.572 6.805-3.576 9.237-.573-.576-1.891-1.687-2.562-2.158zm-1.575 3.227c.002-.076.029-.661.083-.927-.14-.033-1.009-.203-1.462-.192-.033.569.239 1.536.508 2.119 1.853-.039 3.188-.593 3.977-1.103-.67-.313-1.813-.59-2.683-.757-.097.2-.336.712-.423.86z"/><path fill="#2BAF2B" d="M131.452 295.455l.001.009a26.385 26.385 0 0 1-.782-1.92c1.159 1.687 4.792.816 4.602-.695 1.777 1.338 5.438-.223 4.605-2.099 1.781.83 3.814-.84 3.357-1.566 3.036.584 5.946 1.168 6.86 1.401-.607.99-1.989 1.688-4.072 1.203 1.125 1.533-1.061 3.373-4.104 2.359.67 1.506-2.041 2.861-5.121 1.292.04 1.507-3.821 1.68-5.346.016zm6.023-7.612c3.523.271 9.351.797 12.959 1.301-.228-1.174-.851-1.509-2.809-2.035-2.106.224-7.451.749-10.15.734z"/><path fill="#FFCC2F" d="M135.272 292.849c1.777 1.338 5.438-.223 4.605-2.099 1.781.83 3.814-.84 3.357-1.566-3.59-.693-7.356-1.388-8.211-1.509.519.027 1.377.086 2.45.169 2.699.014 8.044-.511 10.15-.735-3.411-.864-10.375-2.126-15.184-2.438a6.91 6.91 0 0 1-1.345 1.465c-2.104 4.451-5.917 7.412-10.135 7.412-1.229 0-2.604-.209-4.146-.701-.96 1.03-5.06 1.81-8.385.178 2.638 6.177 8.755 10.301 15.527 10.301 5.703 0 8.232-5.824 7.677-7.365-.134-.374-.666-1.614-.964-2.416 1.162 1.686 4.795.816 4.604-.696z"/><path fill="#CECECE" d="M131.816 281.129c.503-.274 2.243-1.329 3.902-1.725a6.867 6.867 0 0 1-.059-.555c-1.089.26-3.139 1.14-4.314-.072 2.479.748 3.718-.667 5.54-.667 1.086 0 2.636.303 3.857.783-.983-.907-4.205-3.647-8.193-3.657-.89 1.081-1.853 3.42-.733 5.893z"/><path fill="#EF5734" d="M116.815 292.847c1.542.492 2.917.701 4.146.701 4.218 0 8.03-2.961 10.135-7.412-1.557 1.3-4.262 2.41-8.485 2.41 3.762-.852 7.001-2.728 8.648-5.468-1.159-1.843-2.414-5.921.767-9.145-.489-1.571-2.872-5.721-8.144-5.721-9.2 0-16.826 7.699-16.826 18.017 0 2.442.494 4.733 1.374 6.795 3.326 1.632 7.425.853 8.385-.177z"/><path fill="#FFCC2F" d="M119.576 277.137a4.25 4.25 0 1 0 8.499 0 4.25 4.25 0 0 0-8.499 0z"/><path fill="#543729" d="M121.281 277.137a2.543 2.543 0 0 0 5.088 0 2.544 2.544 0 1 0-5.088 0z"/><ellipse fill="#FFF" cx="123.826" cy="276.007" rx="1.482" ry=".922"/></g></svg><svg width="50" height="80" viewBox="0 0 50 566" preserveAspectRatio="xMinYMin meet" id="svg--gulp-logo" y="325"><path d="M197.28 548.749l5.427-90.43 14.985-25.58s-34.106 13.952-91.205 13.952c-57.1 0-90.689-13.694-90.689-13.694l16.794 27.904 5.941 87.848c0 9.418 31.059 17.052 69.374 17.052 38.313 0 69.373-7.634 69.373-17.052M180.161 126.454l11.391-45.025 63.081-66.376L238.007.892l-66.784 70.707-13.226 53.793a886.14 886.14 0 0 0-29.873-.497c-70.336 0-127.355 8.016-127.355 17.902 0 9.887 57.019 17.902 127.355 17.902 70.335 0 127.353-8.015 127.353-17.902 0-7.28-30.924-13.546-75.316-16.343" fill="#D34A47"/><path d="M173.535 151.669s-2.467.553-9.724.584c-7.259.03-12.413-.047-14.466-1.917-.552-.502-.854-1.499-.851-2.174.006-1.285.918-2.042 2.08-2.516l1.099 1.724c-.478.165-.751.36-.752.568-.004.976 7.422 1.644 13.102 1.572 5.681-.07 12.545-.538 12.551-1.5 0-.291-.519-.565-1.422-.781l1.094-1.712c1.472.457 2.757 1.34 2.754 2.868-.014 2.598-3.32 2.993-5.465 3.284" fill="#FFF"/><path d="M254.509 15.184c1.586-1.832-.821-6.518-5.376-10.465C244.576.774 239.596-.94 238.007.892c-1.587 1.832.821 6.518 5.378 10.463 4.555 3.946 9.537 5.662 11.124 3.829M194.246 327.865c-1.495-14.384 31.462-35.216 23.004-35.883-18.208 1.041-27.27 21.338-36.431 42.596-3.357 7.791-14.844 41.013-22.378 36.923-7.532-4.088 9.765-31.407 14.613-47.631-5.594 4.102-26.109 20.041-31.396 5.114-8.5 7.219-26.663 11.13-24.614-7.833-4.522 8.01-14.671 19.193-26.853 14.546-15.998-6.101 9.27-57.062 15.553-54.491 6.284 2.57-1.268 14.179-3.246 18.687-4.35 9.921-9.375 22.393-6.018 24.946 5.751 4.374 21.401-16.547 21.749-17.007 2.927-3.867 11.266-29.166 17.987-26.261 6.721 2.905-16.764 36.308-7.983 42.937 1.771 1.338 9.017-.825 13.425-5.594 2.852-3.085 1.871-9.918 11.378-32.59 9.507-22.671 17.98-50.905 24.5-48.754 6.52 2.15 1.146 16.641-1.193 22.043-10.976 25.354-29.956 67.241-21.005 64.07 8.951-3.17 13.612-3.356 22.377-13.613 8.765-10.257 8.361-27.152 14.203-26.793 5.844.36 4.863 5.777 3.446 9.902 5.75-6.58 27.256-20.438 32.448-6.713 6.15 16.249-30.769 39.72-21.564 38.523 8.975-1.167 23.515-10.376 29.723-18.749l17.088-153.626s-17.195 14.23-126.589 14.23c-109.395 0-124.811-13.934-124.811-13.934l14.548 140.224c7.722-21.947 26.059-66.339 54.963-64.849 13.148.678 30.7 25.995 15.665 26.853-6.364.362-7.01-12.637-14.546-14.546-5.438-1.378-13.009 3.043-17.902 7.833-9.758 9.55-30.745 47.229-27.972 66.014 3.533 23.949 33.048-8.322 38.042-17.903 3.517-6.749 5.893-26.745 13.585-24.647 7.693 2.098-.671 22.734-6.247 40.979-6.264 20.487-9.557 42.098-17.408 39.612-7.852-2.484 4.938-28.932 4.475-33.566-7.38 6.809-20.976 24.047-38.37 15.515l9.035 87.078s24.013 18.973 96.35 18.973c72.337 0 97.239-18.677 97.239-18.677l11.219-100.857c-9.179 8.938-38.229 24.81-40.089 6.919" fill="#D34A47"/></svg><svg width="56.678" height="80" viewBox="0 0 56.678 80" id="svg--html" y="405"><path fill="#E44D26" d="M5.158 73.574L0 15.722h56.678l-5.163 57.843L28.305 80z"/><path fill="#F16529" d="M28.339 75.082l18.755-5.2 4.412-49.43H28.339z"/><path fill="#EBEBEB" d="M28.339 41.909H18.95l-.648-7.266h10.037v-7.095H10.547l.17 1.903 1.744 19.553h15.878zM28.339 60.337l-.031.008-7.903-2.134-.505-5.659H12.777l.995 11.14 14.535 4.036.032-.009z"/><path d="M5.273 0h3.605v3.563h3.299V0h3.606v10.788h-3.606V7.176H8.88v3.612H5.273V0zM20.525 3.577h-3.174V0h9.956v3.577h-3.176v7.211h-3.606V3.577zM28.888 0h3.76l2.313 3.791L37.271 0h3.762v10.788h-3.591V5.44L34.96 9.276h-.062L32.416 5.44v5.348h-3.528V0zM42.826 0h3.607v7.222h5.07v3.566h-8.678V0z"/><path fill="#FFF" d="M28.314 41.909v7.095h8.738l-.824 9.202-7.914 2.136v7.383l14.546-4.033.107-1.198 1.668-18.68.173-1.905h-1.912zM28.314 27.548v7.095h17.139l.143-1.595.323-3.597.17-1.903z"/></svg><svg width="87.514" height="80" viewBox="0 0 87.514 80" id="svg--html-css" y="485"><path fill="#E44D26" d="M3.974 56.674L0 12.111h43.659l-3.976 44.556-17.879 4.957z"/><path fill="#F16529" d="M21.831 57.836l14.445-4.006 3.399-38.075H21.831z"/><path fill="#EBEBEB" d="M21.831 32.283h-7.233l-.5-5.597h7.733v-5.464H8.124l.133 1.465L9.6 37.748h12.231zM21.831 46.479l-.025.005-6.087-1.644-.388-4.359H9.843l.766 8.582 11.197 3.108.025-.007z"/><path d="M4.063 0H6.84v2.744h2.542V0h2.777v8.312H9.382V5.527H6.841v2.784H4.063V0zM15.812 2.757h-2.444V0h7.669v2.757H18.59v5.555h-2.778V2.757zM22.253 0h2.896l1.782 2.922L28.71 0h2.898v8.312h-2.767v-4.12L26.93 7.147h-.049L24.97 4.192v4.12h-2.718V0zM32.989 0h2.779v5.563h3.905v2.748h-6.685V0z"/><path fill="#FFF" d="M21.812 32.283v5.465h6.729l-.634 7.088-6.095 1.646v5.687l11.204-3.106.082-.923 1.285-14.389.133-1.468h-1.473zM21.812 21.222V26.686H35.013l.11-1.228.249-2.771.131-1.465z"/><path fill="#0D5AA2" d="M83.388 75.188L65.517 80l-17.872-4.812-4.124-44.677h43.993z"/><path fill="#449CD1" d="M65.517 34.13v42.032l.04.012 14.463-3.895 3.338-38.149z"/><g fill="#1A171B"><path d="M55.374 23.946v-2.659h3.879v-2.909h-6.789v8.224h6.789v-2.656zM66.233 21.287h2.711v-2.909h-6.788v2.909c.907.909 1.381 1.343 2.695 2.657l-2.695.003v2.654h6.788v-2.655l-2.711-2.659zM75.857 21.287h2.712v-2.909h-6.79v2.909c.908.909 1.382 1.343 2.696 2.657l-2.696.003v2.654h6.79v-2.655l-2.712-2.659z"/></g><path fill="#FFF" d="M65.501 45.301l-12.79 5.327.423 5.274 12.367-5.288 13.154-5.624.546-5.395z"/><linearGradient id="ga" gradientUnits="userSpaceOnUse" x1="59.106" y1="55.902" x2="59.106" y2="45.301"><stop offset=".387" stop-color="#d8d9da" stop-opacity="0"/><stop offset="1" stop-color="#d8d9da"/></linearGradient><path fill="url(#ga)" d="M52.711 50.628l.423 5.274 12.367-5.288v-5.313z"/><linearGradient id="gb" gradientUnits="userSpaceOnUse" x1="72.351" y1="50.614" x2="72.351" y2="39.595"><stop offset=".387" stop-color="#d8d9da" stop-opacity="0"/><stop offset="1" stop-color="#d8d9da"/></linearGradient><path fill="url(#gb)" d="M79.201 39.595l-13.7 5.706v5.313l13.154-5.624z"/><linearGradient id="gc" gradientUnits="userSpaceOnUse" x1="52.73" y1="60.631" x2="78.191" y2="60.631"><stop offset="0" stop-color="#eeedeb"/><stop offset="1" stop-color="#fff"/></linearGradient><path fill="url(#gc)" d="M52.729 50.628l.425 5.274 18.974.06-.423 7.032-6.245 1.76-6.002-1.517-.363-4.364h-5.578l.728 8.425 11.276 3.336 11.215-3.275 1.455-16.731z"/><g opacity=".05" fill="#1A171B"><path d="M65.501 50.628h-12.79l.423 5.274 12.367.039zM65.501 64.735l-.061.019-6.002-1.517-.364-4.364h-5.577l.728 8.425 11.276 3.336z"/></g><linearGradient id="gd" gradientUnits="userSpaceOnUse" x1="51.558" y1="42.293" x2="79.201" y2="42.293"><stop offset="0" stop-color="#eeedeb"/><stop offset="1" stop-color="#fff"/></linearGradient><path fill="url(#gd)" d="M51.558 39.595h27.643l-.546 5.395h-26.43z"/><path opacity=".05" fill="#1A171B" d="M65.501 39.595H51.558l.667 5.395h13.276z"/></svg><svg width="97.299" height="80" viewBox="0 0 97.299 80" id="svg--js" y="565"><path fill-rule="evenodd" clip-rule="evenodd" fill="#193556" d="M67.98 12.864c.796.152 1.402.684 2.074 1.069 8.476 4.869 16.922 9.789 25.426 14.604 1.335.755 1.832 1.529 1.818 3.1-.088 10.235-.052 20.474-.028 30.711.002.684-.246 1.025-.806 1.348-8.121 4.663-16.232 9.346-24.346 14.024-1.248.72-2.495 1.441-3.745 2.159-.118.068-.237.176-.396.087-.335-.38-.29-.845-.29-1.298l-.001-15.676c0-1.348-.002-1.348-1.364-1.351-.479-.001-.958.005-1.438-.006-.292-.007-.579-.028-.782-.279.022-.507.443-.422.729-.437a26.12 26.12 0 0 1 2.58-.007c.639.03.907-.257 1.013-.837.319-1.763.777-3.497 1.109-5.257.173-.917.037-1.062-.89-.969-.265.026-.484.214-.759.179-.321-.219-.232-.54-.209-.847.06-.854.046-6.338.029-6.837a17.311 17.311 0 0 1 0-1.72c.052-.794-.047-5.855.024-6.424-.023-.337-.046-.671-.046-1.007.002-7.654.001-15.308.004-22.962.003-.472-.07-.967.294-1.367z"/><path fill-rule="evenodd" clip-rule="evenodd" fill="#172C45" d="M67.861 54.009c.256.231-.343 3.353-.668 4.607-.226.872-.786 1.141-1.793.935-.805-.165-1.2-.673-1.102-1.505.142-1.169.495-2.299.682-3.46.049-.297.199-.684-.299-.714-.425-.026-1.012-.225-1.15.407-.32 1.475-.779 2.923-.874 4.444-.058.903.283 1.586 1.059 2.053.167.102.32.215.385.411.759.328 1.556.126 2.333.144 1.557.038 1.559.012 1.557 1.57l-.012 17.064c-1.615-.745-3.1-1.728-4.639-2.606-5.229-2.989-10.442-6.009-15.66-9.017-2.806-1.619-5.611-3.242-8.422-4.851-.284-.164-.437-.354-.403-.686.013-.144.001-.288.001-.434 0-10.641.004-21.28-.012-31.922-.002-.616.15-.968.727-1.297 8.853-5.066 17.684-10.167 26.522-15.257.621-.358 1.194-.807 1.888-1.033l.009 24.884c0 .236.031 5.507.013 6.134-.037 1.236-.178 9.887-.142 10.129z"/><path fill-rule="evenodd" clip-rule="evenodd" fill="#FEFEFE" d="M74.605 58.131c-.624 0-1.25-.011-1.874.006-.212.005-.516-.13-.572.245-.052.319.073.578.354.726.301.159.635.19.977.188.913-.01 1.827.007 2.739-.009.393-.006.482.125.427.518-.207 1.493-.193 1.514-1.672 1.489-.958-.015-1.919.096-2.873-.076-1.73-.315-2.319-1.024-2.203-2.754a8.618 8.618 0 0 1 .588-2.586c.843-2.119 2.394-2.54 4.389-2.513.094.003.188.036.283.046 1.74.182 2.355.882 2.313 2.632-.051 1.975-.164 2.089-2.082 2.089l-.794-.001zM64.101 61.188c-1.364-.428-1.854-1.189-1.714-2.631.151-1.575.62-3.09.888-4.644.053-.313.226-.428.549-.421 2.03.047 1.688-.285 1.362 1.57-.174.988-.419 1.963-.588 2.953-.07.412-.156.93.345 1.143.558.236 1.171.181 1.76.063.066-.014.118-.192.142-.303.342-1.636.68-3.272 1.018-4.909.091-.552.498-.517.915-.515 1.337.008 1.344.002 1.064 1.317-.408 1.916-.848 3.827-1.227 5.749-.098.494-.252.676-.777.656-1.246-.047-2.491-.024-3.737-.028zM85.946 57.02c.957-1.39 1.88-2.673 2.737-3.998.328-.507.688-.753 1.29-.687.356.04.72-.004 1.079.013.207.008.484-.113.604.093.129.224-.138.379-.259.54-1.093 1.459-2.2 2.906-3.288 4.368-.795 1.068-1.763 2.046-1.903 3.476-.03.297-.22.392-.502.385-.504-.01-1.009-.01-1.514 0-.264.006-.479-.087-.358-.36.697-1.58-.103-2.994-.479-4.448-.118-.455-.016-.562.407-.524.214.021.433.004.648.004 1.153-.002 1.153-.002 1.538 1.138z"/><path fill-rule="evenodd" clip-rule="evenodd" fill="#FEFEFE" d="M81.817 53.498c.625 0 1.249-.006 1.873.002 1.15.014 1.49.311 1.732 1.395.094.417.004.538-.433.538-1.197 0-2.396.067-3.595.067-.442 0-.625.133-.708.585-.272 1.483-.617 2.955-.888 4.438-.097.524-.294.709-.846.697-1.483-.031-1.483-.002-1.166-1.48.401-1.874.816-3.746 1.193-5.624.092-.458.253-.658.746-.627.697.04 1.395.009 2.092.009z"/><path fill-rule="evenodd" clip-rule="evenodd" fill="#1C3758" d="M73.908 48.024h-3.322l-.005-.141h3.326l.001.141z"/><path fill-rule="evenodd" clip-rule="evenodd" fill="#FEFEFE" d="M60.635 59.203h.663c.123 0 .292.012.304.133.063.59-.229 1.112-.362 1.664-.087.363-.444.197-.677.199a420.64 420.64 0 0 1-4.896.007c-1.9-.008-3.118-.976-3.213-2.848-.125-2.47.492-4.751 2.693-6.218 1.397-.933 2.996-.971 4.547-.379 1.524.581 2.319 2.127 2.064 3.786-.191 1.24-.701 2.382-1.123 3.656zM47.351 64.297c-1.21 0-1.191.003-.93-1.161.119-.537.228-.946.944-.852.399.055.594-.344.763-.667.327-.628.377-1.333.54-2.007a69.7 69.7 0 0 0 .703-3.227c.085-.451.299-.569.732-.574 1.682-.016 1.681-.029 1.321 1.596-.337 1.519-.622 3.053-1.016 4.558-.493 1.888-1.13 2.334-3.057 2.334z"/><path fill-rule="evenodd" clip-rule="evenodd" fill="#FCFCFC" d="M51.039 53.496c1.273 0 1.232-.007 1.008 1.192-.113.604-.369.771-.953.746-1.65-.071-1.572.346-1.14-1.543.18-.789.822-.162 1.085-.395z"/><path fill-rule="evenodd" clip-rule="evenodd" fill="#C2C7CE" d="M78.234 36.393l-.001.001z"/><path fill-rule="evenodd" clip-rule="evenodd" fill="#1E3959" d="M73.806 56.432c-.166 0-.338.021-.5-.007-.242-.042-.616.166-.699-.133-.086-.313.226-.55.49-.722.538-.35 1.116-.407 1.706-.16.313.131.47.401.417.754-.061.418-.398.237-.626.261-.26.026-.524.007-.788.007z"/><path fill-rule="evenodd" clip-rule="evenodd" fill="#172C45" d="M57.082 59.138c-.312 0-.624.018-.934-.004-.643-.045-1.159-.377-1.236-1.005-.181-1.498.051-2.924 1.182-4.047.65-.646 1.828-.762 2.604-.317.624.358.867 1.093.628 2.108-.227.953-.518 1.891-.767 2.838-.077.296-.209.459-.543.433-.31-.025-.621-.005-.934-.006z"/><g fill-rule="evenodd" clip-rule="evenodd" fill="#FEFEFE"><path d="M57.736 33.056c-1.11 1.604-1.592 3.46-1.592 5.341.009 1.871.497 3.774 1.346 5.483.039.082.078.163.12.243a.698.698 0 0 0 .079.154c.016.033.032.065.047.09.033.056.057.105.09.161.056.09.104.188.159.276.032.057.064.104.097.154.055.105.127.201.185.299.032.041.056.082.079.122a7.097 7.097 0 0 0 .279.405.445.445 0 0 0 .049.064c.079.113.159.227.248.333.022.04.057.08.087.121.081.097.152.194.232.282.024.041.056.073.088.106.104.13.209.252.321.372v.008c.007 0 .007.009.016.009.103.121.215.234.319.35.032.031.071.063.104.104.088.08.169.17.255.258.04.033.073.065.112.099.112.113.233.219.354.323 0 .009 0 .009.006.009.018.016.042.032.058.048.104.098.216.187.319.276l.137.113c.088.073.176.139.271.21.049.033.096.073.144.106.098.08.2.153.298.218a.878.878 0 0 0 .111.082l.022.023c.104.065.2.13.297.195.041.024.089.057.128.081.152.097.305.194.457.282.04.025.079.05.127.074.112.073.225.138.346.193.055.041.119.072.19.106l.24.129c.016.009.041.017.057.024.031.016.071.033.103.048.121.065.258.122.394.188.024.009.048.023.072.032.15.066.304.13.457.194.039.008.07.032.111.041.144.057.286.113.431.161.016.008.032.017.049.017.159.057.32.114.479.161.04.009.073.024.112.033.168.049.328.113.496.146 10.697 1.97 13.81-6.515 13.81-6.515-2.617 3.443-7.249 4.351-11.642 3.338-.159-.032-.319-.089-.489-.138a.915.915 0 0 1-.118-.04c-.16-.049-.313-.098-.473-.154a.128.128 0 0 1-.064-.024c-.135-.049-.28-.097-.415-.153a.75.75 0 0 0-.112-.041c-.152-.065-.304-.129-.448-.193-.04-.009-.064-.025-.095-.042a6.153 6.153 0 0 1-.377-.178 3.388 3.388 0 0 0-.111-.048c-.097-.05-.193-.106-.289-.155a1.585 1.585 0 0 1-.201-.104c-.111-.065-.231-.129-.35-.195a.805.805 0 0 0-.121-.072 13.109 13.109 0 0 1-.456-.283c-.04-.025-.081-.058-.119-.081-.112-.073-.217-.146-.329-.221-.031-.022-.063-.048-.103-.072-.106-.072-.209-.153-.306-.226-.048-.032-.096-.073-.136-.105-.097-.074-.192-.146-.279-.22l-.12-.096a11.96 11.96 0 0 1-.353-.3c-.009-.009-.024-.024-.04-.033-.12-.104-.241-.219-.361-.332a.998.998 0 0 0-.104-.098c-.087-.088-.169-.178-.256-.259-.038-.041-.072-.073-.104-.105a5.816 5.816 0 0 1-.319-.348c-.009 0-.017-.01-.017-.017-.112-.123-.216-.244-.327-.373-.025-.033-.058-.065-.081-.098-.079-.097-.161-.203-.239-.3a4.128 4.128 0 0 1-.081-.104c-.097-.122-.183-.242-.272-.365-2.432-3.361-3.312-8.013-1.367-11.82l-1.722 2.223z"/><path d="M64.603 30.342c-1.601 2.325-1.513 5.453-.264 7.917.206.413.438.816.705 1.198.238.348.502.762.823 1.037.11.13.231.251.359.381l.096.098c.12.113.24.227.369.34 0 0 .008.009.008.017h.007c.137.122.281.241.425.355.04.025.064.058.104.082.144.113.286.227.439.332.007 0 .007.008.016.008.063.048.136.089.209.138.031.015.063.041.096.065.104.073.217.137.327.201.018.009.032.018.049.025.096.064.191.121.297.17.031.025.069.04.103.057l.199.105c.017.008.025.008.042.017.135.073.278.138.424.202.031.017.063.024.096.04.111.049.232.097.345.146a.774.774 0 0 1 .151.057c.112.032.217.073.328.105.048.016.096.031.144.049.152.048.304.112.464.138 8.257 1.385 10.17-5.056 10.17-5.056-1.721 2.512-5.049 3.702-8.602 2.771a8.423 8.423 0 0 1-.464-.138.904.904 0 0 1-.145-.041c-.112-.041-.216-.08-.327-.112a.87.87 0 0 0-.145-.057l-.353-.146c-.031-.017-.064-.024-.096-.04-.144-.064-.287-.138-.432-.203-.072-.04-.145-.073-.216-.113-.039-.024-.088-.041-.12-.064-.096-.05-.192-.106-.28-.154-.024-.017-.04-.025-.064-.041a4.496 4.496 0 0 1-.328-.202c-.039-.026-.072-.049-.103-.066-.072-.048-.144-.099-.217-.146-.151-.104-.296-.219-.447-.332-.032-.024-.063-.056-.096-.081-1.562-1.239-2.793-2.94-3.377-4.869-.615-1.994-.479-4.237.584-6.06l-1.303 1.87z"/><path d="M70.379 28.316c-.943 1.401-1.04 3.152-.385 4.699.688 1.653 2.105 2.941 3.754 3.558l.208.073c.031.008.055.016.088.023.096.033.191.065.296.09 4.56.891 5.792-2.375 6.128-2.854-1.087 1.58-2.912 1.961-5.144 1.41a3.988 3.988 0 0 1-.537-.17c-.215-.08-.432-.17-.647-.267a7.004 7.004 0 0 1-1.121-.697c-2-1.54-3.24-4.465-1.935-6.854l-.705.989z"/></g><g fill-rule="evenodd" clip-rule="evenodd"><path fill="#F3D90A" d="M0 0h52.485v53.148H0z"/><path fill="#0B0B0A" d="M17.832 41.952c.775 1.398 1.479 2.571 3.174 2.571 1.62 0 2.645-.645 2.645-3.139V24.403h4.937v17.049c0 5.173-3 7.525-7.367 7.525-3.951 0-6.234-2.068-7.399-4.562l4.01-2.463zm17.424-.432c1.058 1.749 2.431 3.037 4.869 3.037 2.04 0 3.347-1.036 3.347-2.468 0-1.708-1.338-2.318-3.588-3.31l-1.233-.542c-3.563-1.532-5.926-3.457-5.926-7.52 0-3.751 2.82-6.599 7.225-6.599 3.134 0 5.393 1.105 7.011 4.001l-3.836 2.496c-.851-1.54-1.762-2.143-3.175-2.143-1.445 0-2.363.93-2.363 2.143 0 1.499.918 2.101 3.034 3.031l1.231.535c4.192 1.817 6.556 3.676 6.556 7.845 0 4.497-3.489 6.958-8.17 6.958-4.579 0-7.54-2.21-8.986-5.106l4.004-2.358z"/></g></svg><svg width="97.299" height="85" viewBox="0 0 325 450" id="svg--js-strict" y="645"><path fill="#EFC725" d="M40.845 401.254L13.775 97.632h297.45l-27.098 303.573-121.809 33.77z"/><path fill="#FBDE34" d="M162.25 408.787l98.428-27.287 23.158-259.417H162.25z"/><path fill="#EBEBEB" d="M162.193 331.426l-.162.047-41.472-11.201-2.653-29.697H80.527l5.217 58.468 76.277 21.176.172-.049zM167.209 271.937V234.7h-45.854l5.377-58.442 40.58-1.081-.103-38.723H93.065l-2.754 27.449-8.752 98.035-.908 9.999h10.035z"/><path fill="#FFF" d="M166.957 175.229l.163-.046 40.671 2.449 3.451 38.447h37.381l-6.514-71.946-74.98-7.696-.172.048z"/><path fill="#FFF" d="M244.784 175.343l-3.191-38.889H162.99v38.889h81.794M162.064 234.718v37.236h45.854l-4.322 48.293-41.532 11.212v38.742l76.34-21.158.559-6.291 8.752-98.035.908-9.999h-10.035z"/><path fill="#151515" d="M214.945 30.571h-24.689l25.676 27.86v13.26h-52.883V56.165h25.67l-25.67-27.859V15.025h51.896v15.546z"/><path fill="#020202" d="M153.631 15.05v56.617h-45.543V52.953h26.613V15.05h18.93z"/></svg><svg width="122.581" height="77" viewBox="0 0 122.581 77" id="svg--less" y="730"><path d="M116.7 19c0-3.9.6-6.2.6-10.4 0-6.5-2.4-8.6-7.7-8.6h-3.9v4.6h1.2c2.7 0 3.3.9 3.3 4.2 0 3.1-.3 6.2-.3 9.8 0 4.6 1.5 6.4 4.5 7.1v.3c-3 .7-4.5 2.5-4.5 7.1 0 3.6.3 6.5.3 9.8 0 3.4-.7 4.3-3.3 4.3v.1h-1.2v4.8h3.9c5.3 0 7.7-2.1 7.7-8.6 0-4.3-.6-6.5-.6-10.4 0-2.1 1.3-4.3 5.2-4.5v-5.2c-3.9-.1-5.2-2.3-5.2-4.4zm-20.1 6.1c-3-1.2-5.8-1.9-5.8-3.9 0-1.5 1.2-2.4 3.4-2.4s4.2.9 6.4 2.5l4-5.3c-2.5-1.9-5.9-3.9-10.5-3.9-6.8 0-11.4 3.9-11.4 9.4 0 4.9 4.3 7.4 7.9 8.8 3.1 1.2 6.1 2.2 6.1 4.2 0 1.5-1.2 2.5-3.9 2.5-2.5 0-5-1-7.7-3.1l-4 5.8c3 2.5 7.6 4.2 11.4 4.2 8 0 12.3-4.2 12.3-9.7 0-5.5-4.3-7.8-8.2-9.1zM28.3 36.4c-.7 0-1.6-.6-1.6-2.5V0H12.5C7.1 0 4.7 2.1 4.7 8.6c0 4.3.6 6.7.6 10.4 0 2.1-1.3 4.3-5.2 4.5v5.2c3.9.1 5.2 2.3 5.2 4.4 0 3.7-.6 5.9-.6 10.2 0 6.5 2.4 8.6 7.7 8.6h3.9v-4.6h-1.2c-2.5 0-3.3-1-3.3-4.3s.3-6.1.3-9.8c0-4.6-1.5-6.4-4.5-7.1v-.3c3-.7 4.5-2.5 4.5-7.1 0-3.6-.3-6.5-.3-9.8s.7-4.2 3.3-4.2h2.7v28.7c0 6.1 2.1 10.1 8.2 10.1 1.9 0 3.4-.3 4.5-.7l-1-6.5c-.6.1-.9.1-1.2.1zm44.1-11.3c-3.1-1.2-5.9-1.9-5.9-3.9 0-1.5 1.2-2.4 3.4-2.4s4.2.9 6.4 2.5l4-5.3c-2.5-1.9-5.9-3.9-10.5-3.9-6.8 0-11.4 3.9-11.4 9.4 0 4.9 4.3 7.4 7.9 8.8 3.1 1.2 6.1 2.2 6.1 4.2 0 1.5-1.2 2.5-3.9 2.5-2.5 0-5-1-7.7-3.1l-3.9 5.8c3 2.5 7.6 4.2 11.4 4.2 8 0 12.3-4.2 12.3-9.7 0-5.5-4.3-7.8-8.2-9.1zM42.9 12c-7.3 0-14.3 6.1-14.1 15.7 0 9.9 6.5 15.7 15.1 15.7 3.6 0 7.6-1.3 10.7-3.4l-3-5.3c-2.2 1.3-4.3 1.9-6.5 1.9-4 0-7.1-1.9-7.9-6.5h18.1c.1-.7.3-2.1.3-3.7.1-8.1-4.3-14.4-12.7-14.4zm-5.7 12.6c.6-4 3-5.9 5.8-5.9 3.6 0 5 2.5 5 5.9H37.2z"/></svg><svg width="38" height="38" viewBox="0 0 38 38" stroke="#fff" id="svg--oval" y="807"><g transform="translate(1 1)" stroke-width="2" fill="none" fill-rule="evenodd"><circle stroke-opacity=".5" cx="18" cy="18" r="18"/><path d="M36 18c0-9.94-8.06-18-18-18"><animateTransform attributeName="transform" type="rotate" from="0 18 18" to="360 18 18" dur="1s" repeatCount="indefinite"/></path></g></svg><svg width="81.885" height="80" viewBox="0 0 81.885 80" id="svg--photoshop" y="845"><linearGradient id="la" gradientUnits="userSpaceOnUse" x1="3.812" y1="3.041" x2="78.244" y2="77.474"><stop offset="0" stop-color="#32297c"/><stop offset="1" stop-color="#282761"/></linearGradient><path opacity=".95" fill="url(#la)" d="M3.254 3.598h75.547v73.318H3.254z"/><linearGradient id="lb" gradientUnits="userSpaceOnUse" x2="81.885" y2="80"><stop offset="0" stop-color="#95c8fd"/><stop offset="1" stop-color="#73b4f4"/></linearGradient><path fill="url(#lb)" d="M0 0v80h81.885V0H0zm75.374 73.662H6.681V6.51h68.693v67.152z"/><path d="M21.523 24.221c2.211-.402 5.273-.704 9.441-.704 4.52 0 7.834.955 9.993 2.762 2.009 1.657 3.315 4.32 3.315 7.483 0 3.214-1.004 5.876-2.913 7.684-2.46 2.461-6.327 3.615-10.696 3.615-1.155 0-2.21-.05-3.014-.2v12.756h-6.127V24.221zm6.127 15.768c.754.2 1.758.251 3.014.251 4.619 0 7.432-2.26 7.432-6.227 0-3.768-2.611-5.776-6.88-5.776-1.707 0-2.911.151-3.565.303v11.449z" opacity=".1"/><linearGradient id="lc" gradientUnits="userSpaceOnUse" x1="21.307" y1="39.241" x2="62.078" y2="39.241"><stop offset="0" stop-color="#95c8fd"/><stop offset="1" stop-color="#73b4f4"/></linearGradient><path fill="url(#lc)" d="M21.523 22.896c2.211-.402 5.273-.704 9.441-.704 4.52 0 7.834.955 9.993 2.762 2.009 1.657 3.315 4.32 3.315 7.483 0 3.214-1.004 5.876-2.913 7.684-2.46 2.461-6.327 3.615-10.696 3.615-1.155 0-2.21-.05-3.014-.2v12.756h-6.127V22.896zm6.127 15.768c.754.2 1.758.251 3.014.251 4.619 0 7.432-2.26 7.432-6.227 0-3.768-2.611-5.776-6.88-5.776-1.707 0-2.911.151-3.565.303v11.449z"/><g><path d="M46.179 51.941c1.406.854 4.068 1.758 6.277 1.758 2.712 0 3.917-1.105 3.917-2.712 0-1.657-1.004-2.512-4.018-3.566-4.771-1.656-6.779-4.269-6.729-7.131 0-4.318 3.567-7.684 9.241-7.684 2.711 0 5.072.703 6.478 1.456l-1.204 4.369c-1.056-.603-3.014-1.405-5.173-1.405-2.21 0-3.415 1.055-3.415 2.561 0 1.558 1.154 2.311 4.27 3.415 4.418 1.607 6.477 3.867 6.528 7.482 0 4.419-3.466 7.685-9.944 7.685-2.963 0-5.625-.754-7.432-1.758l1.204-4.47z" opacity=".1"/><linearGradient id="ld" gradientUnits="userSpaceOnUse" x1="21.307" y1="44.063" x2="62.079" y2="44.063"><stop offset="0" stop-color="#95c8fd"/><stop offset="1" stop-color="#73b4f4"/></linearGradient><path fill="url(#ld)" d="M46.179 50.616c1.406.854 4.068 1.758 6.277 1.758 2.712 0 3.917-1.105 3.917-2.712 0-1.657-1.004-2.512-4.018-3.566-4.771-1.656-6.779-4.269-6.729-7.131 0-4.318 3.567-7.684 9.241-7.684 2.711 0 5.072.703 6.478 1.456l-1.204 4.369c-1.056-.603-3.014-1.405-5.173-1.405-2.21 0-3.415 1.055-3.415 2.561 0 1.558 1.154 2.311 4.27 3.415 4.418 1.607 6.477 3.867 6.528 7.482 0 4.419-3.466 7.685-9.944 7.685-2.963 0-5.625-.754-7.432-1.758l1.204-4.47z"/></g></svg><svg width="115.581" height="77" viewBox="0 0 115.581 77" id="svg--responsive" y="925"><path fill="#F7C73C" d="M13.738 3.888h88.584V57.39H13.738z"/><path fill="#FAAF3A" d="M102.323 3.888V57.39H13.738l88.585-53.502"/><path fill="#E6E6E5" d="M99.614 0H15.967c-2.957 0-5.354 2.214-5.354 4.935v51.071c0 2.729 2.396 4.943 5.354 4.943h83.647c2.961 0 5.354-2.215 5.354-4.943V4.935C104.967 2.214 102.575 0 99.614 0zm1.476 56.14h-86.6V4.799h86.6V56.14z"/><path fill="#F1F1F1" d="M103.1 57.25H12.478L0 73.113h115.581z"/><path fill="#C7CFD0" d="M115.581 73.113H0S-.141 77 8.604 77h98.375c8.744 0 8.602-3.887 8.602-3.887z"/><path fill="#E6E6E5" d="M103.1 57.25H12.478L0 73.113h115.581z"/><g><path fill="#E6E6E5" d="M71.065 33.282a3.321 3.321 0 0 1 3.322 3.319v37.08a3.32 3.32 0 0 1-3.322 3.318H16.833a3.32 3.32 0 0 1-3.321-3.318v-37.08a3.32 3.32 0 0 1 3.321-3.319h54.232z"/><path fill="#00A89C" d="M16.211 36.473h52.854V73.81H16.211z"/><path fill="#22B9AA" d="M69.065 36.473H16.211V73.81z"/><path fill="#6D6E70" d="M73.221 55.144a1.457 1.457 0 1 0-2.914-.004 1.457 1.457 0 0 0 2.914.004zM15.239 58.037a.246.246 0 0 1-.492 0v-5.793c0-.133.11-.246.246-.246a.25.25 0 0 1 .246.246v5.793z"/></g><g><path fill="#E6E6E5" d="M27.361 74.835c0 1.195-.814 2.164-1.818 2.164H1.932c-1.002 0-1.815-.969-1.815-2.164V28.526c0-1.194.813-2.164 1.815-2.164h23.611c1.004 0 1.818.97 1.818 2.164v46.309z"/><path fill="#CBDB2B" d="M1.371 30.125h24.734v39.789H1.371z"/><path fill="#D8DF25" d="M26.105 30.125H1.371v39.789z"/><circle fill="#6D6E70" cx="13.74" cy="73.146" r="2.412"/><path fill="#6D6E70" d="M22.155 28.459a.226.226 0 0 1-.223.226h-3.888a.224.224 0 0 1-.223-.226c0-.123.098-.223.223-.223h3.888c.123 0 .223.1.223.223zM23.136 28.459c0 .225-.18.401-.399.401a.4.4 0 0 1 0-.801c.219 0 .399.181.399.4z"/></g></svg></svg>